<svg viewBox="0 0 64.622 12.6769" fill="none" xmlns="http://www.w3.org/2000/svg">
<g id="New Release">
<path d="M4.66747 9.46563C5.78766 9.46563 6.98254 9.12957 7.86002 8.53214L7.1319 6.87052C6.5718 7.29993 5.65697 7.52396 4.85417 7.52396C3.17388 7.52396 2.37108 6.49712 2.37108 5.73165C2.37108 5.67564 2.37108 5.56363 2.37108 5.50762H9.07356C9.14824 5.22757 9.26026 4.55545 9.26026 4.01403C9.26026 1.49359 7.52396 0 5.2089 0C2.20305 0 0 2.48309 0 5.41427C0 7.9347 1.82965 9.46563 4.66747 9.46563ZM7.11323 3.86467H2.63245C2.81915 2.87516 3.77132 1.94167 5.05954 1.94167C6.47845 1.94167 7.15057 2.76314 7.15057 3.67797C7.15057 3.71531 7.15057 3.82733 7.1319 3.86467H7.11323Z" fill="var(--fill-0, black)"/>
<path d="M18.1982 9.24159L15.9951 4.61146L19.9905 0.224039H17.2647L14.7816 2.98718L13.5494 0.224039H10.9729L13.0079 4.61146L8.78856 9.24159H11.4957L14.2402 6.1984L15.6404 9.24159H18.1982Z" fill="var(--fill-0, black)"/>
<path d="M24.8802 9.46563C27.9421 9.46563 29.6224 6.44111 29.6224 3.73398C29.6224 1.34423 28.2408 0 26.2058 0C25.123 0 24.2455 0.448078 23.48 1.34423L23.7414 0.224039H21.3703L18.6072 12.6769H20.9782L22.0051 8.04672C22.6025 8.94287 23.6667 9.46563 24.8802 9.46563ZM24.4882 7.35593C23.536 7.35593 22.7705 6.92653 22.3785 6.31042L23.0879 3.19255C23.5734 2.57644 24.3201 2.1097 25.1416 2.1097C26.2992 2.1097 27.1393 2.93117 27.1393 4.21939C27.1393 5.88101 26.0564 7.35593 24.4882 7.35593Z" fill="var(--fill-0, black)"/>
<path d="M32.6284 9.24159L33.9353 3.32324C34.458 2.7258 35.2982 2.24039 36.1757 2.24039C36.5491 2.24039 36.8851 2.31507 37.0345 2.35241L37.5572 0C36.1197 0 35.1488 0.541427 34.3647 1.40024L34.6261 0.224039H32.255L30.2573 9.24159H32.6284Z" fill="var(--fill-0, black)"/>
<path d="M42.0072 9.46563C43.1274 9.46563 44.3223 9.12957 45.1998 8.53214L44.4717 6.87052C43.9116 7.29993 42.9967 7.52396 42.1939 7.52396C40.5136 7.52396 39.7108 6.49712 39.7108 5.73165C39.7108 5.67564 39.7108 5.56363 39.7108 5.50762H46.4133C46.488 5.22757 46.6 4.55545 46.6 4.01403C46.6 1.49359 44.8637 0 42.5487 0C39.5428 0 37.3398 2.48309 37.3398 5.41427C37.3398 7.9347 39.1694 9.46563 42.0072 9.46563ZM44.453 3.86467H39.9722C40.1589 2.87516 41.1111 1.94167 42.3993 1.94167C43.8182 1.94167 44.4903 2.76314 44.4903 3.67797C44.4903 3.71531 44.4903 3.82733 44.4717 3.86467H44.453Z" fill="var(--fill-0, black)"/>
<path d="M51.2252 9.46563C53.6896 9.46563 55.1272 8.02805 55.1272 6.31042C55.1272 3.56595 50.5344 3.80866 50.5344 2.70713C50.5344 2.24039 51.0012 1.86699 51.8413 1.86699C52.9428 1.86699 54.063 2.48309 54.4924 3.04319L55.7246 1.45625C54.8658 0.578767 53.4282 0 51.8973 0C49.4889 0 48.182 1.47492 48.182 3.04319C48.182 5.75032 52.7748 5.45161 52.7748 6.66515C52.7748 7.16924 52.2707 7.59864 51.4679 7.59864C50.161 7.59864 48.8541 6.81451 48.3127 6.17973L46.9871 7.84135C47.9953 8.90554 49.5823 9.46563 51.2252 9.46563Z" fill="var(--fill-0, black)"/>
<path d="M60.1226 9.46563C62.587 9.46563 64.0246 8.02805 64.0246 6.31042C64.0246 3.56595 59.4318 3.80866 59.4318 2.70713C59.4318 2.24039 59.8985 1.86699 60.7387 1.86699C61.8402 1.86699 62.9604 2.48309 63.3898 3.04319L64.622 1.45625C63.7632 0.578767 62.3256 0 60.7947 0C58.3863 0 57.0794 1.47492 57.0794 3.04319C57.0794 5.75032 61.6722 5.45161 61.6722 6.66515C61.6722 7.16924 61.1681 7.59864 60.3653 7.59864C59.0584 7.59864 57.7515 6.81451 57.2101 6.17973L55.8845 7.84135C56.8927 8.90554 58.4796 9.46563 60.1226 9.46563Z" fill="var(--fill-0, black)"/>
</g>
</svg>
