<svg preserveAspectRatio="none" width="100%" height="100%" overflow="visible" style="display: block;" viewBox="0 0 11.2 13.4" fill="none" xmlns="http://www.w3.org/2000/svg">
<g id="icon">
<path d="M0 8.6C0 5.2 0.84 4.6 5.6 4.6C10.36 4.6 11.2 5.2 11.2 8.6C11.2 12.8 10.36 13.4 5.6 13.4C0.84 13.4 0 12.8 0 8.6Z" fill="var(--fill-0, #101628)"/>
<path fill-rule="evenodd" clip-rule="evenodd" d="M7.36383 3.00241C7.39971 3.54063 7.4 4.19319 7.4 5C7.4 5.33137 7.66863 5.6 8 5.6C8.33137 5.6 8.6 5.33137 8.6 5V4.98261C8.6 4.19662 8.6 3.50508 8.56117 2.92259C8.52237 2.34052 8.44221 1.80867 8.25149 1.36365C8.05006 0.893642 7.72837 0.528289 7.24779 0.296899C6.79284 0.0778487 6.23866 0 5.6 0C4.96134 0 4.40716 0.0778487 3.95221 0.296899C3.47163 0.528289 3.14994 0.893642 2.94851 1.36365C2.75779 1.80867 2.67763 2.34052 2.63883 2.92259C2.6 3.50508 2.6 4.19662 2.6 4.98262V5C2.6 5.33137 2.86863 5.6 3.2 5.6C3.53137 5.6 3.8 5.33137 3.8 5C3.8 4.19319 3.80029 3.54063 3.83617 3.00241C3.87237 2.45948 3.94221 2.09133 4.05149 1.83635C4.15006 1.60636 4.27837 1.47171 4.47279 1.3781C4.69284 1.27215 5.03866 1.2 5.6 1.2C6.16135 1.2 6.50716 1.27215 6.72721 1.3781C6.92163 1.47171 7.04994 1.60636 7.14851 1.83635C7.25779 2.09133 7.32763 2.45948 7.36383 3.00241Z" fill="var(--fill-0, #101628)"/>
</g>
</svg>
