<svg preserveAspectRatio="none" width="100%" height="100%" overflow="visible" style="display: block;" viewBox="0 0 11.6668 13" fill="none" xmlns="http://www.w3.org/2000/svg">
<g id="Vector">
<path d="M7.83301 0C8.84373 0 9.66682 0.822323 9.66699 1.83301C9.66699 2.22715 9.54074 2.59147 9.3291 2.89062C9.3941 2.89896 9.46039 2.90685 9.52539 2.91602C10.5119 3.04947 11.3059 3.83053 11.4551 4.81543V4.82129L11.457 4.82031C11.737 6.81854 11.737 8.84455 11.457 10.8428C11.307 11.8333 10.5127 12.6136 9.52637 12.7471L9.50098 12.751C8.27435 12.9168 7.01769 13 5.80273 13C4.58779 13 3.3736 12.9188 2.16699 12.7588L2.14355 12.7559C1.15529 12.625 0.361166 11.8451 0.211914 10.8594L0.208984 10.8389C-0.0701312 8.84317 -0.0700121 6.81991 0.209961 4.82422C0.209961 4.82255 0.211914 4.81319 0.211914 4.81152C0.361143 3.82827 1.15373 3.04934 2.13867 2.91602C2.20527 2.90686 2.27129 2.89895 2.33789 2.89062C2.12539 2.59146 2 2.22634 2 1.83301C2.00018 0.822467 2.82248 0.000233829 3.83301 0C4.64966 0 5.37634 0.394467 5.83301 1.00195C6.28959 0.39456 7.01652 0.00013875 7.83301 0ZM1.0166 7C0.966602 8.23583 1.02658 9.47451 1.19824 10.7012L1.2002 10.7158C1.28186 11.2591 1.72345 11.6923 2.27344 11.7656L2.27441 11.7646L2.29785 11.7676C3.30527 11.9017 4.31893 11.9776 5.33301 11.9951V7H1.0166ZM6.33203 7.00098V11.9951C7.34611 11.9751 8.35865 11.8966 9.36523 11.7607L9.38965 11.7578C9.93962 11.6837 10.3815 11.2475 10.4648 10.6992C10.6365 9.47426 10.6975 8.23676 10.6475 7.00098H6.33203ZM5.83203 3.66797C4.64376 3.66797 3.45519 3.74724 2.27441 3.90723C1.72275 3.98223 1.28255 4.41622 1.19922 4.96289C1.15008 5.3086 1.1109 5.65542 1.08008 6.00195H10.583C10.5522 5.65529 10.5132 5.30789 10.4648 4.96289C10.3805 4.41562 9.93866 3.98137 9.38965 3.90723C8.20906 3.74811 7.02012 3.66798 5.83203 3.66797ZM3.83203 1.00098C3.37293 1.00098 2.99815 1.3749 2.99805 1.83398C2.99805 2.29315 3.37286 2.66797 3.83203 2.66797H5.33203V2.50098C5.33203 1.67356 4.65941 1.00112 3.83203 1.00098ZM7.83203 1.00098C7.00453 1.00098 6.33203 1.67348 6.33203 2.50098V2.66797H7.83203C8.29108 2.66783 8.66504 2.29306 8.66504 1.83398C8.66494 1.37499 8.29102 1.00112 7.83203 1.00098Z" fill="var(--fill-0, #343D54)"/>
<path d="M7.83301 0C8.84373 0 9.66682 0.822323 9.66699 1.83301C9.66699 2.22715 9.54074 2.59147 9.3291 2.89062C9.3941 2.89896 9.46039 2.90685 9.52539 2.91602C10.5119 3.04947 11.3059 3.83053 11.4551 4.81543V4.82129L11.457 4.82031C11.737 6.81854 11.737 8.84455 11.457 10.8428C11.307 11.8333 10.5127 12.6136 9.52637 12.7471L9.50098 12.751C8.27435 12.9168 7.01769 13 5.80273 13C4.58779 13 3.3736 12.9188 2.16699 12.7588L2.14355 12.7559C1.15529 12.625 0.361166 11.8451 0.211914 10.8594L0.208984 10.8389C-0.0701312 8.84317 -0.0700121 6.81991 0.209961 4.82422C0.209961 4.82255 0.211914 4.81319 0.211914 4.81152C0.361143 3.82827 1.15373 3.04934 2.13867 2.91602C2.20527 2.90686 2.27129 2.89895 2.33789 2.89062C2.12539 2.59146 2 2.22634 2 1.83301C2.00018 0.822467 2.82248 0.000233829 3.83301 0C4.64966 0 5.37634 0.394467 5.83301 1.00195C6.28959 0.39456 7.01652 0.00013875 7.83301 0ZM1.0166 7C0.966602 8.23583 1.02658 9.47451 1.19824 10.7012L1.2002 10.7158C1.28186 11.2591 1.72345 11.6923 2.27344 11.7656L2.27441 11.7646L2.29785 11.7676C3.30527 11.9017 4.31893 11.9776 5.33301 11.9951V7H1.0166ZM6.33203 7.00098V11.9951C7.34611 11.9751 8.35865 11.8966 9.36523 11.7607L9.38965 11.7578C9.93962 11.6837 10.3815 11.2475 10.4648 10.6992C10.6365 9.47426 10.6975 8.23676 10.6475 7.00098H6.33203ZM5.83203 3.66797C4.64376 3.66797 3.45519 3.74724 2.27441 3.90723C1.72275 3.98223 1.28255 4.41622 1.19922 4.96289C1.15008 5.3086 1.1109 5.65542 1.08008 6.00195H10.583C10.5522 5.65529 10.5132 5.30789 10.4648 4.96289C10.3805 4.41562 9.93866 3.98137 9.38965 3.90723C8.20906 3.74811 7.02012 3.66798 5.83203 3.66797ZM3.83203 1.00098C3.37293 1.00098 2.99815 1.3749 2.99805 1.83398C2.99805 2.29315 3.37286 2.66797 3.83203 2.66797H5.33203V2.50098C5.33203 1.67356 4.65941 1.00112 3.83203 1.00098ZM7.83203 1.00098C7.00453 1.00098 6.33203 1.67348 6.33203 2.50098V2.66797H7.83203C8.29108 2.66783 8.66504 2.29306 8.66504 1.83398C8.66494 1.37499 8.29102 1.00112 7.83203 1.00098Z" stroke="var(--stroke-0, #343D54)"/>
</g>
</svg>
