<svg preserveAspectRatio="none" width="100%" height="100%" overflow="visible" style="display: block;" viewBox="0 0 11.6667 12.9994" fill="none" xmlns="http://www.w3.org/2000/svg">
<g id="Group">
<path id="Vector" d="M10.2492 1.36021C9.345 1.16021 8.42583 0.834375 7.51833 0.391875C6.4475 -0.130625 5.21917 -0.130625 4.14834 0.391875C3.24084 0.834375 2.3225 1.16021 1.4175 1.36021C0.582501 1.54521 0 2.26938 0 3.12188V7.80021C0 9.13021 0.673333 10.346 1.80167 11.051L4.155 12.5219C4.665 12.8402 5.24917 12.9994 5.83333 12.9994C6.4175 12.9994 7.00167 12.8402 7.51167 12.5219L9.865 11.051C10.9933 10.346 11.6667 9.13104 11.6667 7.80021V3.12188C11.6667 2.26938 11.0833 1.54438 10.2492 1.36021ZM10.6667 7.80021C10.6667 8.78354 10.1692 9.68187 9.335 10.2027L6.98167 11.6735C6.28417 12.1094 5.3825 12.1094 4.685 11.6735L2.33167 10.2027C1.4975 9.68187 1 8.78354 1 7.80021V3.12188C1 2.74188 1.26083 2.41854 1.63333 2.33604C2.615 2.11938 3.60834 1.76688 4.58584 1.29021C4.98167 1.09688 5.4075 1.00021 5.8325 1.00021C6.2575 1.00021 6.68333 1.09688 7.07916 1.29021C8.0575 1.76688 9.05083 2.11938 10.0325 2.33604C10.4058 2.41854 10.6658 2.74188 10.6658 3.12188V7.80021H10.6667Z" fill="var(--fill-0, #666D85)"/>
<path id="Vector_2" d="M8.14666 4.31104L5.16666 7.29104L4.18666 6.31104C3.99166 6.11604 3.675 6.11604 3.47916 6.31104C3.28333 6.50604 3.28416 6.82271 3.47916 7.01854L4.8125 8.35187C4.91 8.44937 5.03833 8.49854 5.16583 8.49854C5.29333 8.49854 5.42166 8.44937 5.51916 8.35187L8.85249 5.01854C9.04749 4.82354 9.04749 4.50687 8.85249 4.31104C8.65749 4.11521 8.34083 4.11604 8.145 4.31104H8.14666Z" fill="var(--fill-0, #666D85)"/>
</g>
</svg>
