<svg preserveAspectRatio="none" width="100%" height="100%" overflow="visible" style="display: block;" viewBox="0 0 16.25 16.25" fill="none" xmlns="http://www.w3.org/2000/svg">
<path id="Vector" fill-rule="evenodd" clip-rule="evenodd" d="M8.125 0C3.63769 0 0 3.63769 0 8.125C0 12.6123 3.63769 16.25 8.125 16.25C12.6123 16.25 16.25 12.6123 16.25 8.125C16.25 3.63769 12.6123 0 8.125 0ZM8.75 3.125C8.75 2.77982 8.47018 2.5 8.125 2.5C7.77982 2.5 7.5 2.77982 7.5 3.125V8.125C7.5 8.47018 7.77982 8.75 8.125 8.75H11.875C12.2202 8.75 12.5 8.47018 12.5 8.125C12.5 7.77982 12.2202 7.5 11.875 7.5H8.75V3.125Z" fill="var(--fill-0, #343D54)"/>
</svg>
