<svg viewBox="0 0 44.0081 13.8758" fill="none" xmlns="http://www.w3.org/2000/svg">
<g id="Group">
<path id="Vector" d="M26.2265 0.000811914H22.5912L21.4547 1.15022V0.000811914H19.0871V13.8758H21.0133L21.7519 13.1417V10.0596H26.2257L27.8652 8.4301V1.63036L26.2257 0.000811914H26.2265ZM25.1822 7.65029H21.7527V3.07511L22.4426 2.46457H25.1822V7.65116V7.65029Z" fill="var(--fill-0, #FCEA03)"/>
<g id="Group_2">
<path id="Vector_2" d="M6.95269 10.0597L8.59312 8.42928V6.00266L2.68394 2.81609V1.96375L6.53737 1.95512V3.21506L8.77905 3.2237V1.63041L6.785 0H1.67779L0.0564766 1.63041V4.05704L5.94567 7.2436V8.09594H2.498V6.9474H0V8.42928L1.64042 10.0597H6.95269Z" fill="var(--fill-0, #FCEA03)"/>
<path id="Vector_3" d="M14.5764 10.0597L15.7138 8.91115V10.0597H18.0806V0H15.4149V6.98453L14.7259 7.59594H12.0046V0H9.33887V8.42928L10.9793 10.0597H14.5764Z" fill="var(--fill-0, #FCEA03)"/>
<path id="Vector_4" d="M30.3098 0L28.6885 1.63041V8.42928L30.3098 10.0597H35.6029L37.2242 8.42928V6.55793H34.6524V7.91028H31.2977V5.52079H37.2251V1.63041L35.6038 0H30.3098ZM34.6524 4.18744H31.2977V2.14942H34.6524V4.18744Z" fill="var(--fill-0, #FCEA03)"/>
<path id="Vector_5" d="M41.7334 0L40.3728 1.35235V0H38.0068V10.0588H39.9401L40.6717 9.33257V3.26083L41.4545 2.53802H44.0081V0H41.7334Z" fill="var(--fill-0, #FCEA03)"/>
</g>
</g>
</svg>
