<svg viewBox="0 0 31.1871 13.8568" fill="none" xmlns="http://www.w3.org/2000/svg">
<g id="Group">
<g id="Vector">
</g>
<path id="Vector_2" d="M9.05979 3.79798L8.10751 4.74273L7.15697 3.79798H3.50424L2.36776 4.94739V3.79798H9.09656e-05V13.8568H2.66491V6.87401L3.3548 6.26174H6.05785V13.8568H8.72354V6.97591L9.44122 6.26174H12.0417V13.8568H14.7066V5.42926L13.067 3.79798H9.05979Z" fill="var(--fill-0, #FCEA03)"/>
<path id="Vector_3" d="M18.8381 5.98347H21.4169V8.05863H17.0926L15.4521 9.68904V12.1347L17.0926 13.7651H20.5967L21.7523 12.5984V13.7651H23.9888V5.3358L22.3484 3.70538H17.2229L15.5825 5.3358V6.96622H18.0987V6.71923L18.8381 5.98347ZM21.4169 11.0967L20.7462 11.6709H18.0249V9.48524H21.4169V11.0967Z" fill="var(--fill-0, #FCEA03)"/>
<path id="Vector_4" d="M24.9219 13.7638H26.8482L27.5867 13.0306V0.000223048H24.9219V13.7638Z" fill="var(--fill-0, #FCEA03)"/>
<path id="Vector_5" d="M28.5205 13.833H30.4476L31.187 13.0998V0.0694448H28.5205V13.833Z" fill="var(--fill-0, #FCEA03)"/>
</g>
</svg>
