<svg preserveAspectRatio="none" width="100%" height="100%" overflow="visible" style="display: block;" viewBox="0 0 22.2421 20.0256" fill="none" xmlns="http://www.w3.org/2000/svg">
<g id="Group">
<path id="Vector" d="M21.3419 4.77823C20.0244 3.23698 18.5706 1.82198 16.9919 0.546984C16.0031 -0.251766 14.5656 -0.164266 13.6669 0.734484L13.5856 0.81573C13.1906 1.21073 13.1931 1.85448 13.5969 2.24073C14.7244 3.31948 15.7794 4.47199 16.7456 5.70449C17.5656 6.74949 17.4719 8.24448 16.5319 9.18323C15.5056 10.2095 13.8406 10.2095 12.8131 9.18323L11.3131 7.68323C10.5319 6.90198 9.26563 6.90198 8.48438 7.68323L3.38438 12.7832C3.00938 13.1582 2.99563 13.7632 3.35438 14.1532L3.36813 14.1682C3.74813 14.5832 4.39813 14.597 4.79688 14.1982L9.18938 9.80323C9.33563 9.65698 9.57313 9.65698 9.71938 9.80323C9.86563 9.94948 9.86563 10.187 9.71938 10.3332L5.32813 14.727C4.93063 15.1257 4.94438 15.7745 5.35938 16.1557L5.37438 16.1695C5.76563 16.5282 6.36938 16.5145 6.74438 16.1395L11.1344 11.7482C11.2806 11.602 11.5181 11.602 11.6644 11.7482C11.8106 11.8945 11.8106 12.132 11.6644 12.2782L7.38313 16.5607C6.97188 16.972 7.00063 17.6482 7.44688 18.022L7.46313 18.0357C7.85563 18.3645 8.43313 18.3395 8.79563 17.977L13.0794 13.6932C13.2256 13.547 13.4631 13.547 13.6094 13.6932C13.7556 13.8395 13.7556 14.077 13.6094 14.2232L9.53563 18.297C9.11313 18.7195 9.15063 19.4132 9.61438 19.7895L9.62938 19.802C9.99688 20.0995 10.5194 20.0995 10.8894 19.8057C14.6469 16.8257 18.1419 13.4382 21.3631 9.62448C22.5456 8.22448 22.5319 6.16948 21.3406 4.77698L21.3419 4.77823Z" fill="var(--fill-0, #2567E7)"/>
<path id="Vector_2" d="M12.3744 6.62323L13.8731 8.12198C14.3144 8.56323 15.0306 8.56323 15.4731 8.12198C15.8744 7.72073 15.9194 7.07948 15.5706 6.63198C14.2531 4.94323 12.7406 3.37573 11.0981 1.97823C9.70563 0.793227 7.65313 0.803228 6.25938 1.98698C4.18063 3.75448 2.26938 5.71198 0.553127 7.83448C-0.186873 8.74948 -0.181873 10.057 0.553127 10.9757C0.696877 11.1557 0.841876 11.3345 0.988126 11.512C1.36313 11.967 2.04938 11.997 2.46563 11.5807L7.42188 6.62448C8.78813 5.25823 11.0044 5.25823 12.3719 6.62448L12.3744 6.62323Z" fill="var(--fill-0, #2567E7)"/>
</g>
</svg>
