<svg preserveAspectRatio="none" width="100%" height="100%" overflow="visible" style="display: block;" viewBox="0 0 20 20" fill="none" xmlns="http://www.w3.org/2000/svg">
<g id="mdi:support">
<path id="Vector" d="M16.16 12.5303C16.4808 11.7512 16.655 10.917 16.655 10.0003C16.655 9.34035 16.5542 8.70785 16.38 8.12118C15.7842 8.25868 15.1608 8.33201 14.51 8.33201C13.1771 8.33344 11.8635 8.01441 10.6797 7.4018C9.496 6.78919 8.4769 5.90097 7.70833 4.81201C6.88696 6.80186 5.33574 8.40227 3.3725 9.28535C3.33583 9.51451 3.33583 9.76201 3.33583 10.0003C3.33583 10.8755 3.50821 11.7421 3.84311 12.5506C4.17802 13.3591 4.6689 14.0938 5.28772 14.7126C6.5375 15.9624 8.23255 16.6645 10 16.6645C10.9625 16.6645 11.8883 16.4537 12.7225 16.0778C13.245 17.077 13.4833 17.572 13.465 17.572C11.9617 18.0762 10.7975 18.3237 10 18.3237C7.78167 18.3237 5.66417 17.4528 4.10583 15.8853C3.15713 14.9411 2.45242 13.7802 2.0525 12.5028H0.833334V8.33201H1.8325C2.13522 6.85848 2.8312 5.49439 3.84659 4.38447C4.86198 3.27456 6.1589 2.46022 7.59974 2.02788C9.04057 1.59553 10.5716 1.5613 12.0303 1.92883C13.489 2.29635 14.821 3.05192 15.885 4.11535C17.0398 5.26629 17.8277 6.73361 18.1492 8.33201H19.1667V12.5028H19.1117L15.8483 15.5003L10.99 14.9503V13.4195H15.4175L16.16 12.5303ZM7.4975 9.78951C7.7725 9.78951 8.03833 9.89951 8.23083 10.1012C8.42429 10.2962 8.53284 10.5598 8.53284 10.8345C8.53284 11.1092 8.42429 11.3728 8.23083 11.5678C8.03833 11.7603 7.7725 11.8703 7.4975 11.8703C6.92 11.8703 6.4525 11.412 6.4525 10.8345C6.4525 10.257 6.92 9.78951 7.4975 9.78951ZM12.4933 9.78951C13.0708 9.78951 13.5292 10.257 13.5292 10.8345C13.5292 11.412 13.0708 11.8703 12.4933 11.8703C11.9158 11.8703 11.4483 11.412 11.4483 10.8345C11.4483 10.5574 11.5584 10.2916 11.7544 10.0956C11.9504 9.89961 12.2162 9.78951 12.4933 9.78951Z" fill="var(--fill-0, #0076FF)"/>
</g>
</svg>
