<svg preserveAspectRatio="none" width="100%" height="100%" overflow="visible" style="display: block;" viewBox="0 0 19.6428 19.6428" fill="none" xmlns="http://www.w3.org/2000/svg">
<g id="Group">
<path id="Vector" d="M14.8928 8.64281C16.3616 8.64281 17.7128 9.15407 18.7816 10.0053C18.8091 7.87157 18.6916 5.73532 18.4266 3.61532C18.2141 1.91157 16.8741 0.572812 15.1703 0.359062C11.3366 -0.119687 7.44906 -0.119687 3.61531 0.359062C1.91156 0.571562 0.572812 1.91157 0.359062 3.61532C-0.119687 7.44907 -0.119687 11.3366 0.359062 15.1703C0.571562 16.8741 1.91156 18.2128 3.61531 18.4266C5.53156 18.6666 7.46281 18.7866 9.39281 18.7866C9.59656 18.7866 9.80031 18.7841 10.0053 18.7816C9.15406 17.7141 8.64281 16.3628 8.64281 14.8928C8.64281 11.4466 11.4466 8.64281 14.8928 8.64281ZM7.39281 7.39282V2.02531C7.39281 1.75656 7.60531 1.53531 7.87406 1.52531C8.38031 1.50781 8.88656 1.49906 9.39281 1.49906C9.89906 1.49906 10.4053 1.50781 10.9116 1.52531C11.1803 1.53406 11.3916 1.75656 11.3916 2.02531V7.39282C11.3916 7.94532 10.9441 8.39281 10.3916 8.39281H8.39156C7.83906 8.39281 7.39156 7.94532 7.39156 7.39282H7.39281Z" fill="var(--fill-0, #2567E7)"/>
<path id="Vector_2" d="M14.8928 10.1428C12.2741 10.1428 10.1428 12.2741 10.1428 14.8928C10.1428 17.5116 12.2741 19.6428 14.8928 19.6428C17.5116 19.6428 19.6428 17.5116 19.6428 14.8928C19.6428 12.2741 17.5116 10.1428 14.8928 10.1428ZM14.8928 18.1428C13.1003 18.1428 11.6428 16.6853 11.6428 14.8928C11.6428 13.1003 13.1003 11.6428 14.8928 11.6428C16.6853 11.6428 18.1428 13.1003 18.1428 14.8928C18.1428 16.6853 16.6853 18.1428 14.8928 18.1428Z" fill="var(--fill-0, #2567E7)"/>
<path id="Vector_3" d="M16.0428 13.3766L14.3503 15.0691L13.9916 14.7103C13.6991 14.4178 13.2241 14.4178 12.9303 14.7103C12.6378 15.0028 12.6378 15.4778 12.9303 15.7716L13.8191 16.6603C13.9591 16.8003 14.1503 16.8803 14.3491 16.8803C14.5478 16.8803 14.7391 16.8016 14.8791 16.6603L17.1016 14.4378C17.3941 14.1453 17.3941 13.6703 17.1016 13.3766C16.8091 13.0828 16.3341 13.0841 16.0403 13.3766H16.0428Z" fill="var(--fill-0, #2567E7)"/>
</g>
</svg>
