<svg preserveAspectRatio="none" width="100%" height="100%" overflow="visible" style="display: block;" viewBox="0 0 18.979 19.1128" fill="none" xmlns="http://www.w3.org/2000/svg">
<g id="Group">
<path id="Vector" d="M14.8928 8.89281C16.3728 8.89281 17.7278 9.43282 18.7753 10.3241C18.8203 8.08407 18.7041 5.84032 18.4266 3.61532C18.2141 1.91157 16.8741 0.572812 15.1703 0.359062C11.3366 -0.119687 7.44906 -0.119687 3.61531 0.359062C1.91156 0.571562 0.572812 1.91157 0.359062 3.61532C-0.119687 7.44907 -0.119687 11.3366 0.359062 15.1703C0.571562 16.8741 1.91156 18.2128 3.61531 18.4266C5.53156 18.6666 7.46281 18.7866 9.39281 18.7866C9.70281 18.7866 10.0141 18.7828 10.3241 18.7766C9.43281 17.7291 8.89281 16.3741 8.89281 14.8941C8.89281 11.5853 11.5841 8.89407 14.8928 8.89407V8.89281ZM8.39281 8.39281C7.84031 8.39281 7.39281 7.94532 7.39281 7.39282V2.02531C7.39281 1.75656 7.60531 1.53531 7.87406 1.52531C8.38031 1.50781 8.88656 1.49906 9.39281 1.49906C9.89906 1.49906 10.4053 1.50781 10.9116 1.52531C11.1803 1.53406 11.3916 1.75656 11.3916 2.02531V7.39282C11.3916 7.94532 10.9441 8.39281 10.3916 8.39281H8.39156H8.39281Z" fill="var(--fill-0, #2567E7)"/>
<path id="Vector_2" d="M15.539 10.8291L15.5978 10.7691C15.8865 10.4728 15.8815 9.99781 15.584 9.70906C15.2865 9.42031 14.8128 9.42531 14.524 9.72281L13.2728 11.0053C12.989 11.2966 12.989 11.7616 13.2728 12.0528L14.5228 13.3341C14.6703 13.4853 14.864 13.5603 15.0603 13.5603C15.2565 13.5603 15.4378 13.4891 15.584 13.3466C15.8415 13.0953 15.879 12.7041 15.6953 12.4103C16.729 12.7591 17.479 13.7628 17.479 14.9453C17.479 16.4166 16.3203 17.6128 14.8953 17.6128C13.4703 17.6128 12.3115 16.4166 12.3115 14.9453C12.3115 14.5316 11.9753 14.1953 11.5615 14.1953C11.1478 14.1953 10.8115 14.5316 10.8115 14.9453C10.8115 17.2428 12.644 19.1128 14.8953 19.1128C17.1465 19.1128 18.979 17.2428 18.979 14.9453C18.979 12.8716 17.4865 11.1466 15.5403 10.8303L15.539 10.8291Z" fill="var(--fill-0, #2567E7)"/>
</g>
</svg>
