<svg width="97" height="16" viewBox="0 0 97 16" fill="none" xmlns="http://www.w3.org/2000/svg">
<path d="M93.2958 3.192L92.0126 1.136C91.7456 0.708 91.4268 0.33 91.0681 0H61.4727V16C69.0444 16 78.9075 15.996 85.6085 15.996C85.6424 15.984 85.6762 15.972 85.7101 15.96C85.6802 15.962 85.6503 15.968 85.6184 15.97C87.5054 14.97 89.1293 13.474 90.3109 11.582L93.2958 6.8C93.9792 5.704 93.9792 4.288 93.2958 3.192Z" fill="white"/>
<path d="M94.9995 0H42.9135L32.9248 16H79.443C83.2169 16 85.7303 14.838 87.9995 12C90.2687 9.162 94.9995 0 94.9995 0Z" fill="black"/>
<path d="M79.4248 13.2302L79.919 11.9342C80.0485 11.9922 80.2836 12.0282 80.4948 12.0282C80.7997 12.0282 80.9989 11.9222 81.2002 11.6282L81.5529 11.0982L80.5426 5.36816H82.0928L82.6926 9.33016L85.0657 5.36816H86.7096L82.575 11.9942C81.9534 13.0082 81.3177 13.3742 80.3792 13.3742C80.0505 13.3742 79.6978 13.3262 79.4288 13.2322L79.4248 13.2302Z" fill="white"/>
<path d="M76.237 5.22661C76.9882 5.22661 77.6697 5.55661 78.0462 6.12261L78.1997 5.36861H79.7021L78.4448 11.0626H76.9424L77.1078 10.3546C76.6256 10.9206 76.0856 11.2026 75.4041 11.2026C74.1129 11.2026 73.2422 10.3546 73.2422 8.84461C73.2422 7.12261 74.2982 5.22461 76.237 5.22461V5.22661ZM76.4721 6.56061C75.4978 6.56061 74.8044 7.49261 74.8044 8.54061C74.8044 9.35461 75.3443 9.87261 76.0617 9.87261C76.5897 9.87261 77.0599 9.59061 77.3648 9.20061L77.7992 7.22061C77.5521 6.84261 77.0719 6.56061 76.4721 6.56061Z" fill="white"/>
<path d="M69.4265 5.2282C70.1776 5.2282 70.8591 5.5582 71.2357 6.1242L71.8693 3.2002H73.3717L71.6342 11.0642H70.1318L70.2972 10.3562C69.815 10.9222 69.275 11.2042 68.5936 11.2042C67.3024 11.2042 66.4316 10.3562 66.4316 8.8462C66.4316 7.1242 67.4877 5.2262 69.4265 5.2262V5.2282ZM69.6616 6.5602C68.6872 6.5602 67.9938 7.49219 67.9938 8.54019C67.9938 9.35419 68.5338 9.8722 69.2511 9.8722C69.7791 9.8722 70.2494 9.5902 70.5542 9.2002L70.9886 7.2202C70.7415 6.8422 70.2613 6.5602 69.6616 6.5602Z" fill="white"/>
<path d="M62.5165 11.2046C60.7073 11.2046 59.709 10.1086 59.709 8.62256C59.709 6.84256 61.0719 5.22656 62.9867 5.22656C64.796 5.22656 65.8062 6.33456 65.8062 7.82056C65.8062 9.58856 64.4433 11.2046 62.5185 11.2046H62.5165ZM62.5743 9.87256C63.5726 9.87256 64.254 8.91856 64.254 7.89256C64.254 7.06656 63.7598 6.56056 62.9389 6.56056C61.9287 6.56056 61.2472 7.52656 61.2472 8.54056C61.2472 9.36656 61.7414 9.87256 62.5743 9.87256Z" fill="white"/>
<path d="M56.8634 11.0642H55.1837L56.5805 4.67419H54.291L54.6198 3.2002H60.8684L60.5516 4.67419H58.2622L56.8654 11.0642H56.8634Z" fill="white"/>
<path d="M0 8.00001C0 12.42 3.56867 16.002 7.97022 16C16.4625 15.998 30.237 15.996 37.8386 15.996C41.6125 15.996 44.689 15.21 46.6916 12C48.6941 8.79 52.5 0 52.5 0C52.5 0 49.8239 6.91414e-06 46.6916 6.91414e-06H7.97022C3.56867 6.91414e-06 0 3.58201 0 8.00001Z" fill="#FEEE00"/>
<path d="M7.86252 10.976C8.55195 10.976 9.2872 10.764 9.82718 10.386L9.37886 9.338C9.03415 9.608 8.47025 9.75 7.9761 9.75C6.94196 9.75 6.44781 9.102 6.44781 8.618V8.476H10.5724C10.6182 8.3 10.688 7.876 10.688 7.534C10.688 5.944 9.61996 5 8.19528 5C6.34619 5 4.98926 6.568 4.98926 8.416C4.98926 10.006 6.11505 10.972 7.86252 10.972V10.976ZM9.3669 7.442H6.60921C6.72477 6.818 7.31059 6.228 8.10362 6.228C8.97636 6.228 9.39081 6.746 9.39081 7.324C9.39081 7.348 9.39081 7.418 9.37886 7.442H9.3669Z" fill="black"/>
<path d="M16.1888 10.8336L14.8319 7.91155L17.2907 5.14355H15.613L14.0847 6.88755L13.3255 5.14355H11.7395L12.9928 7.91155L10.3965 10.8336H12.0623L13.7519 8.91355L14.6147 10.8336H16.1888Z" fill="black"/>
<path d="M20.302 10.976C22.1869 10.976 23.2211 9.06795 23.2211 7.35795C23.2211 5.84995 22.3702 5.00195 21.1189 5.00195C20.4534 5.00195 19.9114 5.28395 19.4412 5.84995L19.6026 5.14395H18.144L16.4424 13.002H17.9009L18.5326 10.08C18.9012 10.646 19.5548 10.976 20.302 10.976ZM20.0609 9.64395C19.4751 9.64395 19.0028 9.37195 18.7617 8.98395L19.1981 7.01595C19.497 6.62795 19.9573 6.33195 20.4614 6.33195C21.1747 6.33195 21.6908 6.84995 21.6908 7.66395C21.6908 8.71195 21.0253 9.64395 20.0589 9.64395H20.0609Z" fill="black"/>
<path d="M25.0699 10.834L25.8749 7.09995C26.1957 6.72195 26.7137 6.41595 27.2537 6.41595C27.4829 6.41595 27.6901 6.46395 27.7817 6.48595L28.1025 5.00195C27.2179 5.00195 26.6201 5.34395 26.1379 5.88595L26.2993 5.14395H24.8407L23.6113 10.834H25.0699Z" fill="black"/>
<path d="M30.843 10.976C31.5324 10.976 32.2677 10.764 32.8077 10.386L32.3593 9.338C32.0146 9.608 31.4507 9.75 30.9566 9.75C29.9224 9.75 29.4283 9.102 29.4283 8.618V8.476H33.5529C33.5987 8.3 33.6684 7.876 33.6684 7.534C33.6684 5.944 32.6004 5 31.1758 5C29.3267 5 27.9697 6.568 27.9697 8.416C27.9697 10.006 29.0955 10.972 30.843 10.972V10.976ZM32.3494 7.442H29.5917C29.7072 6.818 30.293 6.228 31.0861 6.228C31.9588 6.228 32.3733 6.746 32.3733 7.324C32.3733 7.348 32.3733 7.418 32.3613 7.442H32.3494Z" fill="black"/>
<path d="M36.5174 10.976C38.0338 10.976 38.9185 10.068 38.9185 8.984C38.9185 7.252 36.091 7.406 36.091 6.71C36.091 6.416 36.378 6.18 36.896 6.18C37.5735 6.18 38.2629 6.568 38.5279 6.922L39.2871 5.92C38.7591 5.366 37.8744 5 36.9319 5C35.4494 5 34.6444 5.93 34.6444 6.92C34.6444 8.628 37.4719 8.44 37.4719 9.206C37.4719 9.524 37.161 9.796 36.6669 9.796C35.8619 9.796 35.0589 9.302 34.7241 8.9L33.9092 9.948C34.5289 10.62 35.5072 10.974 36.5174 10.974V10.976Z" fill="black"/>
<path d="M41.993 10.976C43.5094 10.976 44.3941 10.068 44.3941 8.984C44.3941 7.252 41.5666 7.406 41.5666 6.71C41.5666 6.416 41.8535 6.18 42.3716 6.18C43.0491 6.18 43.7385 6.568 44.0035 6.922L44.7627 5.92C44.2346 5.366 43.35 5 42.4075 5C40.925 5 40.12 5.93 40.12 6.92C40.12 8.628 42.9475 8.44 42.9475 9.206C42.9475 9.524 42.6366 9.796 42.1425 9.796C41.3375 9.796 40.5345 9.302 40.1997 8.9L39.3848 9.948C40.0045 10.62 40.9828 10.974 41.993 10.974V10.976Z" fill="black"/>
</svg>
