<svg preserveAspectRatio="none" width="100%" height="100%" overflow="visible" style="display: block;" viewBox="0 0 24 24" fill="none" xmlns="http://www.w3.org/2000/svg">
<g id="vector">
<path fill-rule="evenodd" clip-rule="evenodd" d="M12 4C14.5773 4 16.6667 6.08934 16.6667 8.66667C16.6667 11.244 14.5773 13.3333 12 13.3333C9.42267 13.3333 7.33333 11.244 7.33333 8.66667C7.33333 6.08934 9.42267 4 12 4ZM12 5.33333C10.1591 5.33333 8.66667 6.82572 8.66667 8.66667C8.66667 10.5076 10.1591 12 12 12C13.8409 12 15.3333 10.5076 15.3333 8.66667C15.3333 6.82572 13.8409 5.33333 12 5.33333Z" fill="var(--fill-0, #666D85)"/>
<path fill-rule="evenodd" clip-rule="evenodd" d="M18 0C21.3115 0 24 2.68848 24 6V19.3333C24 21.8744 21.967 23.9422 19.4395 23.9987C19.4236 23.9993 19.4077 24 19.3918 24H4.61833C4.60505 24 4.5918 23.9992 4.57861 23.9989C2.04269 23.9519 0 21.8804 0 19.3333V6C0 2.68848 2.68848 0 6 0H18ZM12.005 16C8.13047 16 4.9583 18.934 4.61768 22.666C4.63398 22.6663 4.65031 22.6667 4.66667 22.6667H19.3333C19.353 22.6667 19.3725 22.6662 19.3921 22.6659C19.0514 18.9355 15.8794 16 12.005 16ZM6 1.33333C3.42486 1.33333 1.33333 3.42486 1.33333 6V19.3333C1.33333 20.6892 2.14403 21.8565 3.3068 22.3771C3.78883 18.0342 7.5039 14.6667 12.005 14.6667C16.5048 14.6667 20.2182 18.0339 20.7021 22.373C21.8601 21.8504 22.6667 20.6857 22.6667 19.3333V6C22.6667 3.42486 20.5751 1.33333 18 1.33333H6Z" fill="var(--fill-0, #666D85)"/>
</g>
</svg>
