<svg preserveAspectRatio="none" width="100%" height="100%" overflow="visible" style="display: block;" viewBox="0 0 25.3334 22.6667" fill="none" xmlns="http://www.w3.org/2000/svg">
<g id="vector">
<path fill-rule="evenodd" clip-rule="evenodd" d="M12.6867 0C13.8009 4.54935e-06 14.8781 0.398604 15.724 1.12386L17.3333 2.50326V1C17.3333 0.631819 17.6318 0.333347 18 0.333333H22C22.3682 0.333333 22.6667 0.63181 22.6667 1V7.07438L25.1006 9.16048C25.3801 9.40009 25.4125 9.82104 25.1729 10.1006C24.9332 10.3801 24.5123 10.4124 24.2328 10.1729L22.6488 8.81527C22.6604 8.94932 22.6667 9.08434 22.6667 9.22005V19.3333C22.6667 21.1749 21.1749 22.6667 19.3333 22.6667H6.00001C4.1585 22.6667 2.66668 21.1748 2.66668 19.3333V9.22005C2.66668 9.08426 2.67276 8.94918 2.68442 8.8151L1.1006 10.1729C0.821056 10.4124 0.400104 10.3801 0.160495 10.1006C-0.0790831 9.82105 -0.0467403 9.40009 0.232761 9.16048L4.26369 5.7054C4.27448 5.69598 4.28518 5.68642 4.29607 5.67708L7.62111 2.82715L7.62143 2.82764L9.60939 1.12386C10.4552 0.398602 11.5325 1.09178e-05 12.6467 0H12.6867ZM12.6467 1.33333C11.8509 1.33334 11.0814 1.61803 10.4772 2.13607L5.13152 6.71777C4.41264 7.35019 4.00001 8.26075 4.00001 9.22005V19.3333C4.00001 20.4385 4.89488 21.3333 6.00001 21.3333H8.00001V13.6667C8.00001 11.8252 9.49184 10.3333 11.3333 10.3333H14C15.8415 10.3333 17.3333 11.8251 17.3333 13.6667V21.3333H19.3333C20.4385 21.3333 21.3333 20.4385 21.3333 19.3333V9.22005C21.3333 8.26219 20.9205 7.35014 20.2017 6.71777L14.8561 2.13623C14.252 1.61819 13.4825 1.33334 12.6867 1.33333H12.6467ZM11.3333 11.6667C10.2282 11.6667 9.33335 12.5615 9.33335 13.6667V21H16V13.6667C16 12.5615 15.1052 11.6667 14 11.6667H11.3333ZM18.6667 3.6452L21.3333 5.93164V1.66667H18.6667V3.6452Z" fill="var(--fill-0, #666D85)"/>
<path d="M14 17.6667C14.7364 17.6667 15.3334 17.0697 15.3334 16.3333C15.3334 15.597 14.7364 15 14 15C13.2637 15 12.6667 15.597 12.6667 16.3333C12.6667 17.0697 13.2637 17.6667 14 17.6667Z" fill="var(--fill-0, #666D85)"/>
</g>
</svg>
