<svg preserveAspectRatio="none" width="100%" height="100%" overflow="visible" style="display: block;" viewBox="0 0 26 28.155" fill="none" xmlns="http://www.w3.org/2000/svg">
<g id="vector">
<path d="M20.6667 0C20.6667 0 19.9817 0.361667 21.55 1.91167C23.5967 3.935 21.14 6.16333 18 4.66667C18 4.66667 20.4184 4.04667 18.995 2.43833C17.4284 0.666667 20.6667 0 20.6667 0Z" fill="var(--fill-0, #0F61FF)"/>
<path d="M16.3334 2.155C16.8856 2.155 17.3334 1.70728 17.3334 1.155C17.3334 0.602715 16.8856 0.155 16.3334 0.155C15.7811 0.155 15.3334 0.602715 15.3334 1.155C15.3334 1.70728 15.7811 2.155 16.3334 2.155Z" fill="var(--fill-0, #0F61FF)"/>
<path d="M25 7.155C25.5523 7.155 26 6.70728 26 6.155C26 5.60272 25.5523 5.155 25 5.155C24.4477 5.155 24 5.60272 24 6.155C24 6.70728 24.4477 7.155 25 7.155Z" fill="var(--fill-0, #0F61FF)"/>
<path d="M0.232774 14.6488C-0.0467457 14.8884 -0.0790867 15.3094 0.160508 15.5889C0.400121 15.8684 0.821068 15.9008 1.10061 15.6612L2.68422 14.3039C2.67259 14.4378 2.66669 14.5727 2.66669 14.7084V24.8217C2.66669 26.6632 4.1585 28.155 6.00003 28.155H19.3334C21.1749 28.155 22.6667 26.6632 22.6667 24.8217V14.7084C22.6667 14.5728 22.6608 14.4378 22.6491 14.3039L24.2328 15.6612C24.5123 15.9008 24.9333 15.8684 25.1729 15.5889C25.4125 15.3094 25.3801 14.8884 25.1006 14.6488L22.5 12.4199V6.48833C22.5 6.21219 22.2762 5.98833 22 5.98833H18C17.7239 5.98833 17.5 6.21219 17.5 6.48833V8.13442L15.724 6.61219C14.8782 5.88693 13.8009 5.48834 12.6867 5.48833H12.6467C11.5325 5.48834 10.4552 5.88693 9.6094 6.61219L0.232774 14.6488ZM21.3334 24.8217C21.3334 25.9268 20.4385 26.8217 19.3334 26.8217H16.6667V19.4883C16.6667 18.015 15.4734 16.8217 14 16.8217H11.3334C9.86003 16.8217 8.66669 18.015 8.66669 19.4883V26.8217H6.00003C4.89488 26.8217 4.00003 25.9268 4.00003 24.8217V14.7084C4.00003 13.7546 4.40782 12.8489 5.11908 12.2169C5.1339 12.2038 5.14885 12.1907 5.16393 12.1778L10.4772 7.6244C11.0814 7.10635 11.8509 6.82167 12.6467 6.82167H12.6867C13.4825 6.82167 14.252 7.10652 14.8561 7.62456L20.1695 12.1778C20.1852 12.1913 20.2009 12.205 20.2164 12.2188C20.9263 12.8506 21.3334 13.757 21.3334 14.7084V24.8217Z" fill="var(--fill-0, #0F61FF)"/>
</g>
</svg>
