<svg preserveAspectRatio="none" width="100%" height="100%" overflow="visible" style="display: block;" viewBox="0 0 24 24" fill="none" xmlns="http://www.w3.org/2000/svg">
<g id="vector">
<path d="M8 13.3333C7.07333 12.99 6.34333 12.26 6 11.3333C5.65667 12.26 4.92667 12.99 4 13.3333C4.92667 13.6767 5.65667 14.4067 6 15.3333C6.34333 14.4067 7.07333 13.6767 8 13.3333Z" fill="var(--fill-0, #0F61FF)"/>
<path d="M20.6667 4.66667C19.74 4.32333 19.01 3.59333 18.6667 2.66667C18.3233 3.59333 17.5933 4.32333 16.6667 4.66667C17.5933 5.01 18.3233 5.74 18.6667 6.66667C19.01 5.74 19.74 5.01 20.6667 4.66667Z" fill="var(--fill-0, #0F61FF)"/>
<path fill-rule="evenodd" clip-rule="evenodd" d="M18 0C21.3115 0 24 2.68848 24 6V19.3333C24 21.9099 21.9099 24 19.3333 24H4.66667C2.09014 24 0 21.9099 0 19.3333V6C0 2.68848 2.68848 0 6 0H18ZM6 1.33333C3.42486 1.33333 1.33333 3.42486 1.33333 6V19.3333C1.33333 20.7509 2.21955 21.9623 3.46777 22.444C3.91804 18.1626 7.57163 14.8333 12.005 14.8333C16.4102 14.8334 20.0459 18.1219 20.5339 22.3621L20.5418 22.4404C21.785 21.9562 22.6667 20.7473 22.6667 19.3333V6C22.6667 3.42486 20.5751 1.33333 18 1.33333H6Z" fill="var(--fill-0, #0F61FF)"/>
<path d="M15.3333 8.66667C15.3333 6.82572 13.8409 5.33333 12 5.33333C10.1591 5.33333 8.66667 6.82572 8.66667 8.66667C8.66667 10.5076 10.1591 12 12 12C13.8409 12 15.3333 10.5076 15.3333 8.66667ZM16.6667 8.66667C16.6667 11.244 14.5773 13.3333 12 13.3333C9.42267 13.3333 7.33333 11.244 7.33333 8.66667C7.33333 6.08934 9.42267 4 12 4C14.5773 4 16.6667 6.08934 16.6667 8.66667Z" fill="var(--fill-0, #0F61FF)"/>
<path d="M13.1596 8.58475C13.3954 8.30196 13.8158 8.26384 14.0986 8.49962C14.3814 8.7354 14.4195 9.15579 14.1837 9.43859C13.5726 10.1716 12.8477 10.6783 12.005 10.6783C11.1623 10.6783 10.4374 10.1716 9.82629 9.43859C9.59051 9.15579 9.62862 8.7354 9.91141 8.49962C10.1942 8.26384 10.6146 8.30195 10.8504 8.58475C11.3509 9.18512 11.7368 9.345 12.005 9.345C12.2732 9.345 12.6591 9.18512 13.1596 8.58475Z" fill="var(--fill-0, #0F61FF)"/>
</g>
</svg>
