<svg preserveAspectRatio="none" width="100%" height="100%" overflow="visible" style="display: block;" viewBox="0 0 26.0377 26.8349" fill="none" xmlns="http://www.w3.org/2000/svg">
<g id="vector">
<path fill-rule="evenodd" clip-rule="evenodd" d="M13.439 3.36296C14.0773 3.27326 14.6877 3.56695 15.1571 3.97949C15.6252 4.39084 16.0474 4.98264 16.4162 5.67676C17.1566 7.07014 17.7529 9.01043 18.0565 11.1709C18.3602 13.3314 18.3218 15.361 17.9942 16.9045C17.831 17.6733 17.5882 18.3584 17.2517 18.8828C16.9167 19.4048 16.4363 19.8424 15.789 19.9334C15.4093 19.9868 15.0313 19.9037 14.6897 19.737C13.2805 19.0651 11.6904 18.7948 10.077 18.8016L9.38466 18.8115C8.57544 18.8236 7.95282 19.5201 8.02121 20.3159L8.03 20.3932L8.80181 25.8804C8.85308 26.2449 8.59913 26.582 8.23459 26.6333L6.8495 26.8284C6.67446 26.853 6.49671 26.807 6.35552 26.7007C6.21435 26.5943 6.12101 26.436 6.09641 26.2609L5.22971 20.0926C5.13128 19.3985 4.53315 18.8864 3.8329 18.8965C3.81996 18.8967 3.80709 18.8964 3.79433 18.8958L3.54009 18.8997C2.84379 18.9122 2.19984 18.5654 1.81532 17.9997C-0.0642405 15.2353 -0.48616 12.2331 0.558486 9.05827C0.562335 9.04657 0.566584 9.03495 0.571018 9.0236C0.792198 8.39036 1.30955 7.8979 1.96539 7.71989L8.12782 6.05469C9.71521 5.62441 11.2075 4.9269 12.4078 3.88314C12.6887 3.61572 13.0306 3.42036 13.439 3.36296ZM11.2624 6.26172C10.3746 6.72978 9.43117 7.08296 8.47613 7.3418L2.31451 9.00651C2.08648 9.06844 1.90136 9.24398 1.82509 9.47624C1.82389 9.47989 1.82254 9.48353 1.82118 9.48714C1.82037 9.4893 1.81951 9.4915 1.81874 9.49365C0.925446 12.2247 1.26368 14.7529 2.84169 17.1364L2.91802 17.25C3.05679 17.4542 3.28274 17.5709 3.51633 17.5667H3.51828L9.51535 17.4757C9.70047 17.4726 9.88557 17.4702 10.0707 17.4683C11.0049 17.4643 11.9504 17.5454 12.8762 17.7388C12.8546 17.6995 12.833 17.6598 12.8117 17.6198C12.0714 16.2264 11.4751 14.2859 11.1714 12.1255C10.8678 9.96506 10.9062 7.93554 11.2338 6.39209C11.2431 6.34838 11.2526 6.30487 11.2624 6.26172ZM12.3204 9.27409C12.3205 10.1065 12.3822 11.0092 12.5144 11.9499C12.6451 12.88 12.832 13.7554 13.0578 14.5485C14.1188 14.0303 14.7756 12.8748 14.6034 11.6416C14.43 10.4096 13.4809 9.48022 12.3204 9.27409Z" fill="var(--fill-0, #0F61FF)"/>
<path d="M18.3651 19.6851C18.9174 19.6851 19.3651 20.1328 19.3651 20.6851C19.3651 21.2373 18.9174 21.685 18.3651 21.6851C17.8129 21.6851 17.3652 21.2373 17.3651 20.6851C17.3651 20.1328 17.8128 19.6851 18.3651 19.6851Z" fill="var(--fill-0, #0F61FF)"/>
<path d="M23.4183 16.3034L22.9367 17.5866L25.0217 19.8333L21.1718 18.3883L21.6534 17.105L19.5684 14.86L23.4183 16.3034Z" fill="var(--fill-0, #0F61FF)"/>
<path d="M25.0652 12.1766C25.6268 12.2016 26.0617 12.6767 26.0367 13.2383C26.02 13.9449 25.2351 14.4215 24.6002 14.1216L19.7784 11.9417L25.0652 12.1766Z" fill="var(--fill-0, #0F61FF)"/>
<path d="M23.7584 5.54834C24.1817 5.17836 24.825 5.21995 25.195 5.64323C25.6717 6.16488 25.4351 7.05321 24.7684 7.2749L19.7784 9.03662L23.7584 5.54834Z" fill="var(--fill-0, #0F61FF)"/>
<path d="M20.8384 2.73828L21.6584 3.83659L18.3651 6.29671L19.7401 3.55827L18.9201 2.46159L22.2134 0L20.8384 2.73828Z" fill="var(--fill-0, #0F61FF)"/>
<path d="M14.2584 0.146647C14.8106 0.146649 15.2584 0.594363 15.2584 1.14665C15.2584 1.69893 14.8106 2.14665 14.2584 2.14665C13.7061 2.14662 13.2584 1.69891 13.2584 1.14665C13.2584 0.594381 13.7061 0.146678 14.2584 0.146647Z" fill="var(--fill-0, #0F61FF)"/>
</g>
</svg>
