<svg preserveAspectRatio="none" width="100%" height="100%" overflow="visible" style="display: block;" viewBox="0 0 26.9397 24.8689" fill="none" xmlns="http://www.w3.org/2000/svg">
<g id="vector">
<path fill-rule="evenodd" clip-rule="evenodd" d="M13.439 1.39706C14.0864 1.30608 14.6688 1.5942 15.1347 2.00367C15.603 2.4153 16.0256 3.00747 16.3948 3.70223C17.1351 5.09546 17.7315 7.03562 18.0352 9.19605C18.339 11.3565 18.3004 13.3857 17.9727 14.929C17.8095 15.6977 17.5669 16.3828 17.2304 16.9072C16.8954 17.429 16.4151 17.8665 15.7678 17.9574L15.7677 17.9573C15.3985 18.0094 15.0229 17.9336 14.6894 17.7708C13.2803 17.099 11.6903 16.8287 10.0771 16.8355L9.38452 16.8456H9.38306C8.57383 16.8577 7.95261 17.5542 8.02108 18.35L8.02987 18.4273L8.03003 18.4278L8.80168 23.9145C8.85291 24.279 8.59898 24.6161 8.23446 24.6674L6.84937 24.8626C6.48977 24.913 6.14683 24.6546 6.09627 24.295L5.22957 18.1267C5.1312 17.4326 4.53306 16.9205 3.83276 16.9306C3.73527 16.932 3.63766 16.9322 3.54012 16.9337L3.54028 16.9338C2.84395 16.9463 2.19988 16.5994 1.81535 16.0336C-0.0642713 13.2692 -0.486162 10.2671 0.558512 7.09221C0.56237 7.08049 0.566599 7.06891 0.571045 7.05754C0.792222 6.42426 1.30954 5.93183 1.96541 5.75383L1.96606 5.75367L8.12785 4.08863C9.71525 3.65835 11.2075 2.96086 12.4078 1.91708C12.6887 1.64966 13.0307 1.45445 13.439 1.39706ZM13.6493 2.71656C13.3988 2.74302 13.2248 2.97098 13.0986 3.16773C12.8804 3.50768 12.6826 4.02236 12.5382 4.70289C12.4187 5.26557 12.3409 5.91656 12.3113 6.63208C13.7776 6.83695 14.9977 7.97061 15.2506 9.49781L15.2638 9.58342C15.4829 11.1531 14.617 12.6205 13.2385 13.2336C13.4644 13.9143 13.7189 14.5195 13.9892 15.0281C14.3156 15.6424 14.6477 16.0827 14.9511 16.3494C15.1225 16.5 15.3598 16.684 15.6046 16.6329C15.7232 16.6077 15.9015 16.5071 16.107 16.1869C16.3252 15.847 16.5229 15.3323 16.6674 14.6518C16.9551 13.2964 17.0014 11.4286 16.7136 9.38062C16.4258 7.33268 15.8664 5.55001 15.2162 4.32642C14.9566 3.83773 14.32 2.66837 13.6493 2.71656ZM11.2625 4.29566C10.3746 4.76372 9.43121 5.1169 8.47616 5.37574H8.47567L2.31453 7.04045C2.08646 7.10237 1.90139 7.27788 1.82511 7.51018C1.82318 7.51605 1.82085 7.5218 1.81877 7.52759C0.925444 10.2587 1.26365 12.7868 2.84172 15.1703C3.00245 15.4096 3.20487 15.6062 3.51636 15.6007H3.51831L9.59302 15.5086C10.6954 15.49 11.7938 15.5467 12.8761 15.7727C12.8545 15.7334 12.833 15.6937 12.8118 15.6537C11.1771 12.5773 10.5059 7.85543 11.2338 4.42603C11.2431 4.3823 11.2527 4.33884 11.2625 4.29566ZM12.3126 7.98723C12.3372 8.62262 12.3949 9.28826 12.4918 9.97209L12.4919 9.97323C12.5877 10.6578 12.7147 11.3139 12.8661 11.9303C13.6151 11.5133 14.0687 10.6676 13.9431 9.76783C13.8162 8.86867 13.1465 8.18096 12.3126 7.98723Z" fill="var(--fill-0, #666D85)"/>
<path d="M18.215 4.51391L21.325 0.40391C21.665 -0.044423 22.305 -0.132756 22.7533 0.205577C23.33 0.622244 23.2717 1.54891 22.655 1.89724L18.215 4.51391Z" fill="var(--fill-0, #666D85)"/>
<path d="M24.3767 14.1356C24.9217 14.2772 25.25 14.8322 25.1084 15.3772C24.945 16.0706 24.0667 16.3722 23.51 15.9372L19.3867 12.8439L24.3767 14.1356Z" fill="var(--fill-0, #666D85)"/>
<path d="M20.19 8.48558L25.605 6.71558C26.1384 6.54058 26.7117 6.83224 26.8867 7.36558C27.115 8.02058 26.5733 8.73391 25.8833 8.69558L20.19 8.48558Z" fill="var(--fill-0, #666D85)"/>
</g>
</svg>
