<svg preserveAspectRatio="none" width="100%" height="100%" overflow="visible" style="display: block;" viewBox="0 0 20 22.6667" fill="none" xmlns="http://www.w3.org/2000/svg">
<g id="vector">
<path fill-rule="evenodd" clip-rule="evenodd" d="M7.33333 13.3333C8.4379 13.3333 9.33333 14.2288 9.33333 15.3333V20.6667C9.33333 21.7712 8.4379 22.6667 7.33333 22.6667H2C0.895431 22.6667 0 21.7712 0 20.6667V15.3333C0 14.2288 0.895431 13.3333 2 13.3333H7.33333ZM2 14.6667C1.63181 14.6667 1.33333 14.9651 1.33333 15.3333V20.6667C1.33333 21.0349 1.63181 21.3333 2 21.3333H7.33333C7.70152 21.3333 8 21.0349 8 20.6667V15.3333C8 14.9651 7.70152 14.6667 7.33333 14.6667H2Z" fill="var(--fill-0, #666D85)"/>
<path fill-rule="evenodd" clip-rule="evenodd" d="M18 10.6667C19.1046 10.6667 20 11.5621 20 12.6667V20.6667C20 21.7712 19.1046 22.6667 18 22.6667H12.6667C11.5621 22.6667 10.6667 21.7712 10.6667 20.6667V12.6667C10.6667 11.5621 11.5621 10.6667 12.6667 10.6667H18ZM12.6667 12C12.2985 12 12 12.2985 12 12.6667V20.6667C12 21.0349 12.2985 21.3333 12.6667 21.3333H18C18.3682 21.3333 18.6667 21.0349 18.6667 20.6667V12.6667C18.6667 12.2985 18.3682 12 18 12H12.6667Z" fill="var(--fill-0, #666D85)"/>
<path fill-rule="evenodd" clip-rule="evenodd" d="M7.33333 0C8.4379 0 9.33333 0.89543 9.33333 2V10C9.33333 11.1046 8.4379 12 7.33333 12H2C0.895431 12 0 11.1046 0 10V2C0 0.89543 0.895431 0 2 0H7.33333ZM2 1.33333C1.63181 1.33333 1.33333 1.63181 1.33333 2V10C1.33333 10.3682 1.63181 10.6667 2 10.6667H7.33333C7.70152 10.6667 8 10.3682 8 10V2C8 1.63181 7.70152 1.33333 7.33333 1.33333H2Z" fill="var(--fill-0, #666D85)"/>
<path fill-rule="evenodd" clip-rule="evenodd" d="M18 0C19.1046 0 20 0.89543 20 2V7.33333C20 8.4379 19.1046 9.33333 18 9.33333H12.6667C11.5621 9.33333 10.6667 8.4379 10.6667 7.33333V2C10.6667 0.89543 11.5621 0 12.6667 0H18ZM12.6667 1.33333C12.2985 1.33333 12 1.63181 12 2V7.33333C12 7.70152 12.2985 8 12.6667 8H18C18.3682 8 18.6667 7.70152 18.6667 7.33333V2C18.6667 1.63181 18.3682 1.33333 18 1.33333H12.6667Z" fill="var(--fill-0, #666D85)"/>
</g>
</svg>
