<svg preserveAspectRatio="none" width="100%" height="100%" overflow="visible" style="display: block;" viewBox="0 0 26.4788 28" fill="none" xmlns="http://www.w3.org/2000/svg">
<g id="vector">
<path d="M8.66667 23.3333C9.95533 23.3333 11 24.378 11 25.6667C11 26.9553 9.95533 28 8.66667 28C7.378 28 6.33333 26.9553 6.33333 25.6667C6.33333 24.378 7.378 23.3333 8.66667 23.3333Z" fill="var(--fill-0, #0F61FF)"/>
<path d="M20.6667 24C21.7712 24 22.6667 24.8954 22.6667 26C22.6667 27.1046 21.7712 28 20.6667 28C19.5621 28 18.6667 27.1046 18.6667 26C18.6667 24.8954 19.5621 24 20.6667 24Z" fill="var(--fill-0, #0F61FF)"/>
<path d="M11 9.33333C11.3682 9.33333 11.6667 9.63181 11.6667 10V14C11.6667 14.3682 11.3682 14.6667 11 14.6667C10.6318 14.6667 10.3333 14.3682 10.3333 14V10C10.3333 9.63181 10.6318 9.33333 11 9.33333Z" fill="var(--fill-0, #0F61FF)"/>
<path d="M15.6667 9.33333C16.0349 9.33333 16.3333 9.63181 16.3333 10V14C16.3333 14.3682 16.0349 14.6667 15.6667 14.6667C15.2985 14.6667 15 14.3682 15 14V10C15 9.63181 15.2985 9.33333 15.6667 9.33333Z" fill="var(--fill-0, #0F61FF)"/>
<path d="M20.3333 9.33333C20.7015 9.33333 21 9.63181 21 10V14C21 14.3682 20.7015 14.6667 20.3333 14.6667C19.9651 14.6667 19.6667 14.3682 19.6667 14V10C19.6667 9.63181 19.9651 9.33333 20.3333 9.33333Z" fill="var(--fill-0, #0F61FF)"/>
<path fill-rule="evenodd" clip-rule="evenodd" d="M9.38184 0.171549C9.64354 -0.0648518 10.0476 -0.0568841 10.2998 0.195313L13.9124 3.80794L16.9403 0.780273C17.2006 0.519979 17.6228 0.519942 17.8831 0.780273L22.4364 5.33333H24.4784C25.6694 5.33335 26.5916 6.36555 26.4676 7.54199L26.4608 7.59814L25.5243 14.6165C25.215 16.9361 23.2374 18.6666 20.8984 18.6667H10.3018C9.2249 18.6667 8.22492 18.2993 7.42887 17.6769L7.53076 18.4403C7.75162 20.0973 9.16406 21.3333 10.835 21.3333H23.3333C23.7015 21.3333 24 21.6318 24 22C24 22.3682 23.7015 22.6667 23.3333 22.6667H10.835C8.49595 22.6666 6.51835 20.9361 6.20915 18.6165L4.31413 4.40153C4.18159 3.4075 3.33398 2.66506 2.33171 2.66504H0.666667C0.29849 2.66504 2.19896e-05 2.36654 0 1.99837C0 1.63018 0.298477 1.33171 0.666667 1.33171H2.33171C4.00273 1.33173 5.41494 2.56932 5.63574 4.22526L5.78353 5.33333H8.56217L6.86198 3.63314C6.73696 3.50811 6.66667 3.33843 6.66667 3.16162C6.66668 2.98483 6.73697 2.81528 6.86198 2.69027L9.35693 0.195313L9.38184 0.171549ZM6.99756 14.4403C7.21844 16.0959 8.63109 17.3333 10.3018 17.3333H20.8984C22.5693 17.3333 23.9818 16.0971 24.2026 14.4401L25.1392 7.42188L25.1432 7.38444C25.1731 6.9996 24.8691 6.66669 24.4784 6.66667H5.96143L6.99756 14.4403Z" fill="var(--fill-0, #0F61FF)"/>
<path d="M23.6667 2.66667C24.219 2.66667 24.6667 3.11438 24.6667 3.66667C24.6667 4.21895 24.219 4.66667 23.6667 4.66667C23.1144 4.66667 22.6667 4.21895 22.6667 3.66667C22.6667 3.11438 23.1144 2.66667 23.6667 2.66667Z" fill="var(--fill-0, #0F61FF)"/>
<path d="M14 0C14.5523 0 15 0.447715 15 1C15 1.55228 14.5523 2 14 2C13.4477 2 13 1.55228 13 1C13 0.447715 13.4477 0 14 0Z" fill="var(--fill-0, #0F61FF)"/>
</g>
</svg>
