<svg preserveAspectRatio="none" width="100%" height="100%" overflow="visible" style="display: block;" viewBox="0 0 22.3333 24.3317" fill="none" xmlns="http://www.w3.org/2000/svg">
<g id="vector">
<path d="M6.33333 1.665C6.61226 1.665 6.86166 1.83865 6.9585 2.10022C7.80597 4.38948 9.60885 6.19236 11.8981 7.03984C12.1597 7.13667 12.3333 7.38608 12.3333 7.665C12.3333 7.94392 12.1597 8.19332 11.8981 8.29016C9.60885 9.13764 7.80597 10.9405 6.9585 13.2298C6.86166 13.4913 6.61226 13.665 6.33333 13.665C6.05441 13.665 5.80501 13.4913 5.70817 13.2298C4.8607 10.9405 3.05781 9.13764 0.768555 8.29016C0.506984 8.19332 0.333333 7.94392 0.333333 7.665C0.333333 7.38608 0.506984 7.13667 0.768555 7.03984C3.05781 6.19236 4.8607 4.38948 5.70817 2.10022L5.72803 2.05221C5.83624 1.8176 6.07184 1.665 6.33333 1.665ZM6.33333 3.92005C5.45699 5.49173 4.16007 6.78866 2.58838 7.665C4.16003 8.54132 5.45699 9.83816 6.33333 11.4098C7.20965 9.8382 8.50653 8.54132 10.0781 7.665C8.50649 6.78866 7.20965 5.49169 6.33333 3.92005Z" fill="var(--fill-0, #0F61FF)"/>
<path d="M10.3333 16.9983C10.3333 16.6301 10.0349 16.3317 9.66667 16.3317H4.33333C3.96514 16.3317 3.66667 16.6301 3.66667 16.9983V22.3317C3.66667 22.6999 3.96514 22.9983 4.33333 22.9983H9.66667C10.0349 22.9983 10.3333 22.6999 10.3333 22.3317V16.9983ZM11.6667 22.3317C11.6667 23.4362 10.7712 24.3317 9.66667 24.3317H4.33333C3.22876 24.3317 2.33333 23.4362 2.33333 22.3317V16.9983C2.33333 15.8938 3.22876 14.9983 4.33333 14.9983H9.66667C10.7712 14.9983 11.6667 15.8938 11.6667 16.9983V22.3317Z" fill="var(--fill-0, #0F61FF)"/>
<path d="M21 3.665C21 3.29681 20.7015 2.99833 20.3333 2.99833H15C14.6318 2.99833 14.3333 3.29681 14.3333 3.665V8.99833C14.3333 9.36652 14.6318 9.665 15 9.665H20.3333C20.7015 9.665 21 9.36652 21 8.99833V3.665ZM22.3333 8.99833C22.3333 10.1029 21.4379 10.9983 20.3333 10.9983H15C13.8954 10.9983 13 10.1029 13 8.99833V3.665C13 2.56043 13.8954 1.665 15 1.665H20.3333C21.4379 1.665 22.3333 2.56043 22.3333 3.665V8.99833Z" fill="var(--fill-0, #0F61FF)"/>
<path d="M1 14C1.55228 14 2 13.5523 2 13C2 12.4477 1.55228 12 1 12C0.447715 12 0 12.4477 0 13C0 13.5523 0.447715 14 1 14Z" fill="var(--fill-0, #0F61FF)"/>
<path d="M10.3333 2C10.8856 2 11.3333 1.55228 11.3333 1C11.3333 0.447715 10.8856 0 10.3333 0C9.78105 0 9.33333 0.447715 9.33333 1C9.33333 1.55228 9.78105 2 10.3333 2Z" fill="var(--fill-0, #0F61FF)"/>
<path d="M20.3333 12.3317C21.4379 12.3317 22.3333 13.2271 22.3333 14.3317V22.3317C22.3333 23.4363 21.4379 24.3317 20.3333 24.3317H15C13.8954 24.3317 13 23.4363 13 22.3317V14.3317C13 13.2271 13.8954 12.3317 15 12.3317H20.3333ZM17.6667 15.4984C17.2985 15.4984 17 15.7968 17 16.165V17.665H15.5C15.1318 17.665 14.8333 17.9635 14.8333 18.3317C14.8334 18.6999 15.1318 18.9984 15.5 18.9984H17V20.4984C17 20.8665 17.2985 21.165 17.6667 21.165C18.0348 21.165 18.3333 20.8665 18.3333 20.4984V18.9984H19.8333C20.2015 18.9984 20.5 18.6999 20.5 18.3317C20.5 17.9635 20.2015 17.665 19.8333 17.665H18.3333V16.165C18.3333 15.7968 18.0349 15.4984 17.6667 15.4984Z" fill="var(--fill-0, #0F61FF)"/>
</g>
</svg>
