<svg preserveAspectRatio="none" width="100%" height="100%" overflow="visible" style="display: block;" viewBox="0 0 26.4788 26.6683" fill="none" xmlns="http://www.w3.org/2000/svg">
<g id="vector">
<path d="M8.66667 26.6683C9.95533 26.6683 11 25.6237 11 24.335C11 23.0463 9.95533 22.0017 8.66667 22.0017C7.378 22.0017 6.33333 23.0463 6.33333 24.335C6.33333 25.6237 7.378 26.6683 8.66667 26.6683Z" fill="var(--fill-0, #666D85)"/>
<path d="M20.6667 26.6683C21.7712 26.6683 22.6667 25.7729 22.6667 24.6683C22.6667 23.5638 21.7712 22.6683 20.6667 22.6683C19.5621 22.6683 18.6667 23.5638 18.6667 24.6683C18.6667 25.7729 19.5621 26.6683 20.6667 26.6683Z" fill="var(--fill-0, #666D85)"/>
<path d="M11 8.00163C11.3682 8.00163 11.6666 8.30012 11.6667 8.66829V12.6683C11.6667 13.0365 11.3682 13.335 11 13.335C10.6318 13.335 10.3333 13.0365 10.3333 12.6683V8.66829C10.3334 8.30012 10.6318 8.00163 11 8.00163Z" fill="var(--fill-0, #666D85)"/>
<path d="M15.6667 8.00163C16.0348 8.00163 16.3333 8.30012 16.3333 8.66829V12.6683C16.3333 13.0365 16.0349 13.335 15.6667 13.335C15.2985 13.335 15 13.0365 15 12.6683V8.66829C15 8.30012 15.2985 8.00163 15.6667 8.00163Z" fill="var(--fill-0, #666D85)"/>
<path d="M20.3333 8.00163C20.7015 8.00163 21 8.30012 21 8.66829V12.6683C21 13.0365 20.7015 13.335 20.3333 13.335C19.9651 13.335 19.6667 13.0365 19.6667 12.6683V8.66829C19.6667 8.30012 19.9652 8.00163 20.3333 8.00163Z" fill="var(--fill-0, #666D85)"/>
<path fill-rule="evenodd" clip-rule="evenodd" d="M2.33171 0C4.00273 1.93064e-05 5.41494 1.23761 5.63574 2.89355L5.78353 4.00163H24.4784C25.6694 4.00165 26.5916 5.03386 26.4676 6.21029L26.4608 6.26644L25.5242 13.2848C25.215 15.6044 23.2374 17.3349 20.8984 17.335H10.3018C9.22493 17.335 8.22491 16.9677 7.42887 16.3454L7.53076 17.1086C7.7516 18.7656 9.16404 20.0016 10.835 20.0016H23.3333C23.7015 20.0016 24 20.3001 24 20.6683C24 21.0365 23.7015 21.335 23.3333 21.335H10.835C8.49594 21.3349 6.51834 19.6044 6.20915 17.2848L4.31413 3.06982C4.18159 2.0758 3.33397 1.33335 2.33171 1.33333H0.666667C0.298477 1.33333 0 1.03486 0 0.666667C0 0.298477 0.298477 0 0.666667 0H2.33171ZM6.99756 13.1086C7.21844 14.7642 8.63109 16.0016 10.3018 16.0016H20.8984C22.5693 16.0016 23.9818 14.7654 24.2026 13.1084L25.1392 6.09017L25.1432 6.05273C25.1731 5.66791 24.8691 5.33498 24.4784 5.33496H5.96143L6.99756 13.1086Z" fill="var(--fill-0, #666D85)"/>
</g>
</svg>
