<svg preserveAspectRatio="none" width="100%" height="100%" overflow="visible" style="display: block;" viewBox="0 0 375 260" fill="none" xmlns="http://www.w3.org/2000/svg">
<g id="Address Header">
<g clip-path="url(#clip0_0_4)">
<path d="M0 0H375V248C375 254.627 369.627 260 363 260H12C5.37259 260 0 254.627 0 248V0Z" fill="var(--fill-0, white)"/>
<g id="Vector" filter="url(#filter0_f_0_4)">
<path d="M363.589 -174.887C362.954 -175.613 362.318 -176.339 361.683 -177.065C331.227 -211.647 277.054 -191.546 272.665 -144.273C267.601 -89.5153 245.514 -36.2607 206.359 5.69101C167.204 47.6427 114.621 72.6671 61.9677 77.1622C20.3447 80.7313 0.692851 134.327 30.0684 166.118C30.3437 166.413 30.6191 166.708 30.8732 166.981C122.155 264.783 270.803 263.544 360.52 163.244C444.247 69.6787 445.618 -79.5152 363.589 -174.887Z" fill="var(--fill-0, #70E0FF)" fill-opacity="0.5"/>
</g>
<g id="Vector 7057" filter="url(#filter1_f_0_4)">
<path d="M-24.5943 69.1615C-20.1981 73.7205 -15.8019 78.2795 -11.4057 82.8385C-5.13568 76.5742 1.51279 70.8051 8.6221 65.7926C58.4614 25.4687 125.431 61.3347 166.281 106.446C199.939 146.421 266.005 168.848 310.381 133.526C354.296 103.005 382.069 57.1333 408.794 13.027C413.592 4.97318 418.288 -3.06479 423 -11C418.019 -3.23096 413.051 4.6441 407.986 12.5272C379.892 55.6546 350.204 100.487 307.006 128.263C263.172 159.742 206.479 137.684 174.719 98.554C136.101 51.739 59.4137 5.32785 -1.50607 50.852C-9.81738 56.2981 -17.459 62.5041 -24.5943 69.1615Z" fill="var(--stroke-0, white)"/>
</g>
</g>
</g>
<defs>
<filter id="filter0_f_0_4" x="-272.66" y="-483.153" width="985.576" height="1011.26" filterUnits="userSpaceOnUse" color-interpolation-filters="sRGB">
<feFlood flood-opacity="0" result="BackgroundImageFix"/>
<feBlend mode="normal" in="SourceGraphic" in2="BackgroundImageFix" result="shape"/>
<feGaussianBlur stdDeviation="144.346" result="effect1_foregroundBlur_0_4"/>
</filter>
<filter id="filter1_f_0_4" x="-68.5943" y="-55" width="535.594" height="250.115" filterUnits="userSpaceOnUse" color-interpolation-filters="sRGB">
<feFlood flood-opacity="0" result="BackgroundImageFix"/>
<feBlend mode="normal" in="SourceGraphic" in2="BackgroundImageFix" result="shape"/>
<feGaussianBlur stdDeviation="22" result="effect1_foregroundBlur_0_4"/>
</filter>
<clipPath id="clip0_0_4">
<path d="M0 0H375V248C375 254.627 369.627 260 363 260H12C5.37259 260 0 254.627 0 248V0Z" fill="white"/>
</clipPath>
</defs>
</svg>
