<svg preserveAspectRatio="none" width="100%" height="100%" overflow="visible" style="display: block;" viewBox="0 0 36 36" fill="none" xmlns="http://www.w3.org/2000/svg">
<g id="Frame 2147225909">
<rect width="36" height="36" rx="18" fill="var(--fill-0, white)"/>
<path id="Union" d="M20.5936 11.3013C22.0194 10.8513 23.648 11.0957 25.0027 12.2905C27.2696 14.2902 26.8889 17.642 25.324 20.2124C23.8178 22.6851 22.0589 24.3416 20.6717 25.3814C19.9782 25.9011 19.3761 26.2673 18.9441 26.5054C18.7284 26.6243 18.5544 26.7118 18.4324 26.77C18.3717 26.799 18.3228 26.8213 18.2889 26.8364C18.2723 26.8438 18.2585 26.8499 18.2488 26.854C18.2443 26.856 18.24 26.8577 18.2371 26.8589L18.2332 26.8609H18.2312C18.0843 26.9218 17.9183 26.9226 17.7713 26.8618L17.7693 26.8609L17.7654 26.8589C17.7625 26.8577 17.7583 26.856 17.7537 26.854C17.744 26.8499 17.7296 26.8439 17.7127 26.8364C17.6788 26.8214 17.6308 26.799 17.5701 26.77C17.4481 26.7119 17.2734 26.6253 17.0574 26.5064C16.6254 26.2685 16.0235 25.902 15.3299 25.3823C13.9423 24.3427 12.1832 22.6863 10.6775 20.2124C9.11051 17.6415 8.73195 14.2901 10.9988 12.2905C12.3543 11.0961 13.984 10.8502 15.41 11.3003C16.4483 11.6283 17.3679 12.3222 18.0008 13.2603C18.6339 12.3224 19.5551 11.6292 20.5936 11.3013Z" fill="var(--fill-0, #035794)"/>
</g>
</svg>
