<svg width="28" height="28" viewBox="0 0 28 28" fill="none" xmlns="http://www.w3.org/2000/svg">
<path d="M15.9952 3.00021C17.5139 3.00026 18.7452 4.23146 18.7452 5.75021V6.39963H20.0616C21.4454 6.39974 22.6136 7.42838 22.7891 8.80099L24.4513 21.801C24.6614 23.4448 23.3799 24.8996 21.7227 24.8996H6.25009C4.60122 24.8995 3.32274 23.4585 3.51962 21.8215L5.08602 8.8215C5.25239 7.43997 6.42403 6.39978 7.81552 6.39963H9.2452V5.75021C9.2452 4.23143 10.4764 3.00021 11.9952 3.00021H15.9952ZM11.9952 4.50021C11.3048 4.50021 10.7452 5.05986 10.7452 5.75021V8.75021C10.7451 9.1643 10.4093 9.50016 9.9952 9.50021C9.58106 9.50021 9.24532 9.16433 9.2452 8.75021V7.89963H7.81552C7.18316 7.89978 6.65 8.37239 6.57431 9.00021L5.00888 22.0002C4.91927 22.7444 5.50061 23.3995 6.25009 23.3996H21.7227C22.476 23.3996 23.0585 22.7386 22.963 21.9914L21.3009 8.99142C21.2211 8.36752 20.6906 7.89974 20.0616 7.89963H18.7452V8.75021C18.7451 9.1643 18.4093 9.50016 17.9952 9.50021C17.5811 9.50021 17.2453 9.16433 17.2452 8.75021V7.89963H13.8946C13.4806 7.89937 13.1446 7.56368 13.1446 7.14963C13.1448 6.7357 13.4807 6.39988 13.8946 6.39963H17.2452V5.75021C17.2452 5.05989 16.6855 4.50026 15.9952 4.50021H11.9952ZM9.65438 13.9953C10.216 11.1112 13.4529 11.7297 14.0958 13.0998C14.7387 11.7297 17.9819 11.1433 18.5362 13.9953C19.0239 16.5054 16.3807 18.6192 14.5606 19.6887C14.2726 19.8579 13.918 19.8579 13.63 19.6887C11.8098 18.6192 9.16664 16.5055 9.65438 13.9953Z" fill="#1155CB"/>
</svg>
