<svg preserveAspectRatio="none" width="100%" height="100%" overflow="visible" style="display: block;" viewBox="0 0 17.0306 15.54" fill="none" xmlns="http://www.w3.org/2000/svg">
<g id="Home Icon">
<path id="Subtract" d="M8.51524 0C8.93048 6.55609e-05 9.29937 0.245647 10.0367 0.737305L12.6744 2.49609C15.7511 4.54756 17.2897 5.57377 16.9947 6.54785C16.8268 7.10156 16.1561 7.33933 14.9293 7.44238V11.3994C14.9293 13.3512 14.9291 14.3272 14.3229 14.9336C13.7165 15.54 12.7405 15.54 10.7887 15.54H6.2418C4.29004 15.54 3.31402 15.5399 2.70762 14.9336C2.10131 14.3272 2.10118 13.3513 2.10118 11.3994V7.44238C0.874274 7.33934 0.203692 7.10155 0.0357484 6.54785C-0.259232 5.57374 1.27928 4.54764 4.35606 2.49609L6.99278 0.737305C7.73044 0.245446 8.09987 0 8.51524 0ZM8.03868 9.67578C7.29669 9.67578 6.92543 9.67575 6.69493 9.90625C6.46442 10.1368 6.46446 10.508 6.46446 11.25V15.5391H10.5631V11.25C10.5631 10.5082 10.5629 10.1368 10.3326 9.90625C10.1021 9.67576 9.73078 9.67578 8.98887 9.67578H8.03868Z" fill="var(--fill-0, #043D66)"/>
</g>
</svg>
