<svg width="28" height="28" viewBox="0 0 28 28" fill="none" xmlns="http://www.w3.org/2000/svg">
<path fill-rule="evenodd" clip-rule="evenodd" d="M6.58948 6.94713C7.75223 5.66511 9.40246 4.93396 11.1332 4.93396H17.2068C18.9376 4.93396 20.5878 5.66512 21.7506 6.94713L22.3489 7.60681C23.3724 8.73533 23.9394 10.2043 23.9394 11.7279V18.2475C23.9394 18.624 23.6342 18.9291 23.2578 18.9291C22.8814 18.9291 22.5762 18.624 22.5762 18.2475V11.7279C22.5762 10.5429 22.1352 9.40034 21.3392 8.52261L20.7408 7.86292C19.8365 6.8658 18.553 6.29713 17.2068 6.29713H11.1332C9.78707 6.29713 8.50356 6.8658 7.5992 7.86292L7.00088 8.52261C6.2048 9.40034 5.76383 10.5429 5.76383 11.7279V18.2475C5.76383 18.624 5.45868 18.9291 5.08225 18.9291C4.70582 18.9291 4.40067 18.624 4.40067 18.2475V11.7279C4.40067 10.2043 4.96762 8.73533 5.99116 7.60681L6.58948 6.94713Z" fill="#344054"/>
<path d="M6.92265 15.7958C6.92265 14.792 7.7364 13.9782 8.74021 13.9782C9.74401 13.9782 10.5578 14.792 10.5578 15.7958V21.2485C10.5578 22.2523 9.74401 23.066 8.74021 23.066C7.7364 23.066 6.92265 22.2523 6.92265 21.2485V15.7958Z" fill="#344054"/>
<path d="M17.828 15.7958C17.828 14.792 18.6417 13.9782 19.6455 13.9782C20.6493 13.9782 21.4631 14.792 21.4631 15.7958V21.2485C21.4631 22.2523 20.6493 23.066 19.6455 23.066C18.6417 23.066 17.828 22.2523 17.828 21.2485V15.7958Z" fill="#344054"/>
</svg>
