<svg preserveAspectRatio="none" width="100%" height="100%" overflow="visible" style="display: block;" viewBox="0 0 23 31" fill="none" xmlns="http://www.w3.org/2000/svg">
<g id="Layer_1" clip-path="url(#clip0_0_6)">
<path id="Vector" d="M0.000128393 10.6724V20.3276C0.000128393 21.0811 0.440067 21.7668 1.12637 22.0808L20.27 30.8242C21.5471 31.4069 23.0001 30.475 23.0001 29.071V1.92902C23.0001 0.524951 21.5471 -0.406908 20.27 0.175818L1.12637 8.92173C0.440067 9.23569 0.000128393 9.91889 0.000128393 10.6749V10.6724Z" fill="var(--fill-0, #231F20)"/>
<g id="Group">
<path id="Vector_2" d="M6.14819 14.9425C5.79875 14.9425 5.51468 14.6587 5.51468 14.3095V12.3328C5.51468 11.853 5.12502 11.4637 4.64485 11.4637C4.16469 11.4637 3.77503 11.853 3.77503 12.3328V14.3095C3.77503 14.6587 3.49096 14.9425 3.14152 14.9425C2.79208 14.9425 2.50801 14.6587 2.50801 14.3095V12.3328C2.50801 11.1548 3.46833 10.1953 4.64737 10.1953C5.8264 10.1953 6.78673 11.1548 6.78673 12.3328V14.3095C6.78673 14.6587 6.50265 14.9425 6.15322 14.9425H6.14819Z" fill="var(--fill-0, white)"/>
<path id="Vector_3" d="M10.3979 14.9425C9.08818 14.9425 8.01976 13.8776 8.01976 12.5664V10.1978C8.01976 8.88923 9.08567 7.82173 10.3979 7.82173C11.7102 7.82173 12.7761 8.88671 12.7761 10.1978V12.5664C12.7761 13.875 11.7102 14.9425 10.3979 14.9425ZM10.3979 9.09268C9.78706 9.09268 9.2893 9.59 9.2893 10.2004V12.5689C9.2893 13.1793 9.78706 13.6766 10.3979 13.6766C11.0088 13.6766 11.5066 13.1793 11.5066 12.5689V10.2004C11.5066 9.59 11.0088 9.09268 10.3979 9.09268Z" fill="var(--fill-0, white)"/>
<path id="Vector_4" d="M18.621 14.8596C18.342 14.8596 18.1006 14.6612 18.0504 14.3849L17.0096 8.73093L16.0141 14.3799C15.9638 14.6612 15.7174 14.8596 15.4308 14.8596C15.1443 14.8546 14.9054 14.6411 14.8677 14.3572L13.8219 6.58087C13.7792 6.26439 14.0029 5.97303 14.3197 5.93033C14.6364 5.88763 14.9281 6.11117 14.9708 6.42765L15.5188 10.5042L16.4238 5.36016C16.4716 5.08387 16.7129 4.88293 16.992 4.88042C17.271 4.88042 17.5124 5.07885 17.5627 5.35514L18.5029 10.4716L19.2847 4.18466C19.3249 3.86818 19.614 3.64212 19.9308 3.68231C20.2475 3.7225 20.4738 4.01135 20.4336 4.32783L19.1892 14.3522C19.154 14.636 18.9177 14.8521 18.6311 14.8596C18.6261 14.8596 18.6185 14.8596 18.6135 14.8596H18.621Z" fill="var(--fill-0, white)"/>
<path id="Vector_5" d="M6.14819 21.7291C5.79875 21.7291 5.51468 21.4452 5.51468 21.0961V18.195C5.51468 17.7153 5.12502 17.326 4.64485 17.326C4.16469 17.326 3.77503 17.7153 3.77503 18.195V20.1718C3.77503 20.5209 3.49096 20.8047 3.14152 20.8047C2.79208 20.8047 2.50801 20.5209 2.50801 20.1718V18.195C2.50801 17.017 3.46833 16.0575 4.64737 16.0575C5.8264 16.0575 6.78673 17.017 6.78673 18.195V21.0961C6.78673 21.4452 6.50265 21.7291 6.15322 21.7291H6.14819Z" fill="var(--fill-0, white)"/>
<path id="Vector_6" d="M10.3979 23.3317C9.08818 23.3317 8.01976 22.2667 8.01976 20.9556V18.587C8.01976 17.2784 9.08567 16.2109 10.3979 16.2109C11.7102 16.2109 12.7761 17.2758 12.7761 18.587V20.9556C12.7761 22.2642 11.7102 23.3317 10.3979 23.3317ZM10.3979 17.4818C9.78706 17.4818 9.2893 17.9791 9.2893 18.5895V20.9581C9.2893 21.5684 9.78706 22.0657 10.3979 22.0657C11.0088 22.0657 11.5066 21.5684 11.5066 20.9581V18.5895C11.5066 17.9791 11.0088 17.4818 10.3979 17.4818Z" fill="var(--fill-0, white)"/>
<path id="Vector_7" d="M18.6198 27.1971C18.3382 27.1971 18.0969 26.9936 18.0491 26.7148L16.943 20.1943L16.0153 25.3208C15.965 25.6021 15.7136 25.803 15.4321 25.7955C15.148 25.788 14.9092 25.577 14.8715 25.2932L13.7477 16.9115C13.705 16.595 13.9287 16.3036 14.2455 16.2609C14.5623 16.2182 14.8539 16.4418 14.8966 16.7582L15.5301 21.4904L16.3924 16.7306C16.4427 16.4543 16.6815 16.2534 16.9631 16.2534C16.9631 16.2534 16.9631 16.2534 16.9656 16.2534C17.2471 16.2534 17.486 16.4593 17.5337 16.7356L18.489 22.3695L19.0999 16.6251C19.1326 16.3061 19.4192 16.075 19.7385 16.1102C20.0577 16.1429 20.2865 16.4292 20.2538 16.7482L19.198 26.6771C19.1678 26.966 18.929 27.187 18.6399 27.1945C18.6348 27.1945 18.6273 27.1945 18.6223 27.1945L18.6198 27.1971Z" fill="var(--fill-0, white)"/>
</g>
</g>
<defs>
<clipPath id="clip0_0_6">
<rect width="23" height="31" fill="white"/>
</clipPath>
</defs>
</svg>
