<svg width="54" height="34" viewBox="0 0 54 34" fill="none" xmlns="http://www.w3.org/2000/svg">
<path d="M31.6031 0.000976562H27.2225L25.8531 1.39445V0.000976562H23V16.8221H25.3212L26.2111 15.9322V12.1957H31.6021L33.5778 10.2201V1.97655L31.6021 0.000976562H31.6031ZM30.3447 9.27476H26.2122V3.72808L27.0435 2.98789H30.3447V9.27581V9.27476Z" fill="#1F20B7"/>
<path d="M8.37803 12.1958L10.3547 10.2192V7.27727L3.23416 3.41407V2.38074L7.87757 2.37027V3.89775L10.5788 3.90822V1.97662L8.17596 0H2.02174L0.0680546 1.97662V4.91852L7.16456 8.78172V9.81505H3.0101V8.42262H0V10.2192L1.97672 12.1958H8.37803Z" fill="#1F20B7"/>
<path d="M17.5652 12.1958L18.9357 10.8034V12.1958H21.7877V0H18.5755V8.46764L17.7453 9.20887H14.4661V0H11.2539V10.2192L13.2306 12.1958H17.5652Z" fill="#1F20B7"/>
<path d="M36.524 0L34.5703 1.97662V10.2192L36.524 12.1958H42.9023L44.856 10.2192V7.95045H41.7569V9.58996H37.7144V6.69308H44.857V1.97662L42.9033 0H36.524ZM41.7569 5.07661H37.7144V2.60583H41.7569V5.07661Z" fill="#1F20B7"/>
<path d="M50.2895 0L48.6499 1.6395V0H45.799V12.1947H48.1285L49.0101 11.3143V3.95324L49.9534 3.07695H53.0305V0H50.2895Z" fill="#1F20B7"/>
<path d="M10.917 21.8056L9.76948 22.951L8.62407 21.8056H4.22252L2.85305 23.1991V21.8056H0V34.0003H3.21113V25.5348L4.04244 24.7925H7.29963V34.0003H10.5118V25.6583L11.3766 24.7925H14.5103V34.0003H17.7214V23.7833L15.7457 21.8056H10.917Z" fill="#1F20B7"/>
<path d="M22.6993 24.4552H25.8067V26.971H20.5959L18.6191 28.9476V31.9125L20.5959 33.8891H24.8184L26.2109 32.4747V33.8891H28.9058V23.67L26.9291 21.6934H20.7529L18.7762 23.67V25.6466H21.8083V25.3472L22.6993 24.4552ZM25.8067 30.6541L24.9985 31.3503H21.7193V28.7005H25.8067V30.6541Z" fill="#1F20B7"/>
<path d="M30.0312 33.8875H32.3524L33.2424 32.9987V17.2014H30.0312V33.8875Z" fill="#1F20B7"/>
<path d="M34.3672 33.9715H36.6894L37.5804 33.0826V17.2854H34.3672V33.9715Z" fill="#1F20B7"/>
</svg>
