<svg preserveAspectRatio="none" width="100%" height="100%" overflow="visible" style="display: block;" viewBox="0 0 57.8453 15.0101" fill="none" xmlns="http://www.w3.org/2000/svg">
<g id="Logo vectors">
<path id="Vector" d="M48.2599 6.89622C48.2599 5.23764 49.3819 3.55524 51.5258 3.55524C53.2008 3.55524 54.2026 4.72578 54.2026 6.68195V14.6892H57.8452V6.4161C57.8452 2.51962 55.5651 0 52.0347 0C50.4118 0 48.9411 0.523764 47.807 1.484L47.4825 0.345208H44.6213V14.6852H48.2639V6.89225L48.2599 6.89622Z" fill="var(--fill-0, black)"/>
<path id="Vector_2" d="M21.2501 0.00344645C17.1667 0.00344645 13.9689 3.29681 13.9689 7.50676C13.9689 11.7167 17.1667 15.0101 21.2501 15.0101C25.3335 15.0101 28.5313 11.7127 28.5313 7.50676C28.5313 3.30078 25.3335 0.00344645 21.2501 0.00344645ZM21.2501 11.4548C19.1704 11.4548 17.6636 9.79227 17.6636 7.50279C17.6636 5.21331 19.1704 3.55472 21.2501 3.55472C23.3299 3.55472 24.8366 5.21727 24.8366 7.50279C24.8366 9.7883 23.3299 11.4548 21.2501 11.4548Z" fill="var(--fill-0, black)"/>
<path id="Vector_3" d="M3.63861 6.89565C3.63861 5.23706 4.76064 3.55467 6.90453 3.55467C8.57957 3.55467 9.58138 4.7252 9.58138 6.68138V14.6886H13.224V6.41553C13.224 2.52302 10.9439 0.00339501 7.41345 0.00339501C5.79051 0.00339501 4.31984 0.527159 3.18579 1.48739L2.8612 0.348603H1.14646e-05V14.6886H3.64262V6.89565H3.63861Z" fill="var(--fill-0, black)"/>
<path id="Vector_4" d="M36.5899 0.00334357C32.5065 0.00334357 29.3087 3.29671 29.3087 7.50665C29.3087 11.7166 32.5065 15.01 36.5899 15.01C40.6733 15.01 43.8711 11.7126 43.8711 7.50665C43.8711 3.30067 40.6773 0.00334357 36.5899 0.00334357ZM36.5899 11.4547C34.5102 11.4547 33.0034 9.79217 33.0034 7.50269C33.0034 5.2132 34.5142 3.55462 36.5899 3.55462C38.6657 3.55462 40.1764 5.21717 40.1764 7.50269C40.1764 9.7882 38.6657 11.4547 36.5899 11.4547Z" fill="var(--fill-0, black)"/>
</g>
</svg>
