<svg preserveAspectRatio="none" width="100%" height="100%" overflow="visible" style="display: block;" viewBox="0 0 53.0306 16.8221" fill="none" xmlns="http://www.w3.org/2000/svg">
<g id="Group">
<path id="Vector" d="M31.6031 0.000976562H27.2225L25.8531 1.39445V0.000976562H23V16.8221H25.3212L26.2111 15.9322V12.1957H31.6021L33.5778 10.2201V1.97655L31.6021 0.000976562H31.6031ZM30.3447 9.27476H26.2122V3.72808L27.0435 2.98789H30.3447V9.27581V9.27476Z" fill="#1F20B7"/>
<g id="Group_2">
<path id="Vector_2" d="M8.37803 12.1958L10.3547 10.2192V7.27727L3.23416 3.41407V2.38074L7.87757 2.37027V3.89775L10.5788 3.90822V1.97662L8.17596 0H2.02174L0.0680546 1.97662V4.91852L7.16456 8.78172V9.81505H3.0101V8.42262H0V10.2192L1.97672 12.1958H8.37803Z" fill="#1F20B7"/>
<path id="Vector_3" d="M17.5652 12.1958L18.9357 10.8034V12.1958H21.7877V0H18.5755V8.46764L17.7453 9.20887H14.4661V0H11.2539V10.2192L13.2306 12.1958H17.5652Z" fill="#1F20B7"/>
<path id="Vector_4" d="M36.524 0L34.5703 1.97662V10.2192L36.524 12.1958H42.9023L44.856 10.2192V7.95045H41.7569V9.58996H37.7144V6.69308H44.857V1.97662L42.9033 0H36.524ZM41.7569 5.07661H37.7144V2.60583H41.7569V5.07661Z" fill="#1F20B7"/>
<path id="Vector_5" d="M50.2895 0L48.6499 1.6395V0H45.799V12.1947H48.1285L49.0101 11.3143V3.95324L49.9534 3.07695H53.0306V0H50.2895Z" fill="#1F20B7"/>
</g>
</g>
</svg>
