<svg preserveAspectRatio="none" width="100%" height="100%" overflow="visible" style="display: block;" viewBox="0 0 23 31" fill="none" xmlns="http://www.w3.org/2000/svg">
<g id="Layer_1" clip-path="url(#clip0_0_86)">
<path id="Vector" d="M-0.000160491 10.6724V20.3276C-0.000160491 21.0811 0.439778 21.7668 1.12608 22.0808L20.2697 30.8242C21.5468 31.4069 22.9998 30.475 22.9998 29.071V1.92902C22.9998 0.524951 21.5468 -0.406908 20.2697 0.175818L1.12608 8.92173C0.439778 9.23569 -0.000160491 9.91889 -0.000160491 10.6749V10.6724Z" fill="var(--fill-0, #231F20)"/>
<g id="Group">
<path id="Vector_2" d="M6.14761 14.9425C5.79817 14.9425 5.5141 14.6587 5.5141 14.3095V12.3328C5.5141 11.853 5.12444 11.4637 4.64428 11.4637C4.16411 11.4637 3.77445 11.853 3.77445 12.3328V14.3095C3.77445 14.6587 3.49038 14.9425 3.14094 14.9425C2.7915 14.9425 2.50743 14.6587 2.50743 14.3095V12.3328C2.50743 11.1548 3.46775 10.1953 4.64679 10.1953C5.82583 10.1953 6.78615 11.1548 6.78615 12.3328V14.3095C6.78615 14.6587 6.50207 14.9425 6.15264 14.9425H6.14761Z" fill="var(--fill-0, white)"/>
<path id="Vector_3" d="M10.3974 14.9425C9.0876 14.9425 8.01918 13.8776 8.01918 12.5664V10.1978C8.01918 8.88923 9.08509 7.82173 10.3974 7.82173C11.7096 7.82173 12.7755 8.88671 12.7755 10.1978V12.5664C12.7755 13.875 11.7096 14.9425 10.3974 14.9425ZM10.3974 9.09268C9.78648 9.09268 9.28872 9.59 9.28872 10.2004V12.5689C9.28872 13.1793 9.78648 13.6766 10.3974 13.6766C11.0083 13.6766 11.506 13.1793 11.506 12.5689V10.2004C11.506 9.59 11.0083 9.09268 10.3974 9.09268Z" fill="var(--fill-0, white)"/>
<path id="Vector_4" d="M18.6204 14.8596C18.3414 14.8596 18.1001 14.6612 18.0498 14.3849L17.009 8.73093L16.0135 14.3799C15.9632 14.6612 15.7169 14.8596 15.4303 14.8596C15.1437 14.8546 14.9049 14.6411 14.8671 14.3572L13.8213 6.58087C13.7786 6.26439 14.0023 5.97303 14.3191 5.93033C14.6359 5.88763 14.9275 6.11117 14.9702 6.42765L15.5183 10.5042L16.4233 5.36016C16.471 5.08387 16.7124 4.88293 16.9914 4.88042C17.2705 4.88042 17.5118 5.07885 17.5621 5.35514L18.5023 10.4716L19.2841 4.18466C19.3243 3.86818 19.6135 3.64212 19.9302 3.68231C20.247 3.7225 20.4732 4.01135 20.433 4.32783L19.1886 14.3522C19.1534 14.636 18.9171 14.8521 18.6305 14.8596C18.6255 14.8596 18.6179 14.8596 18.6129 14.8596H18.6204Z" fill="var(--fill-0, white)"/>
<path id="Vector_5" d="M6.14761 21.7291C5.79817 21.7291 5.5141 21.4452 5.5141 21.0961V18.195C5.5141 17.7153 5.12444 17.326 4.64428 17.326C4.16411 17.326 3.77445 17.7153 3.77445 18.195V20.1718C3.77445 20.5209 3.49038 20.8047 3.14094 20.8047C2.7915 20.8047 2.50743 20.5209 2.50743 20.1718V18.195C2.50743 17.017 3.46775 16.0575 4.64679 16.0575C5.82583 16.0575 6.78615 17.017 6.78615 18.195V21.0961C6.78615 21.4452 6.50207 21.7291 6.15264 21.7291H6.14761Z" fill="var(--fill-0, white)"/>
<path id="Vector_6" d="M10.3974 23.3317C9.0876 23.3317 8.01918 22.2667 8.01918 20.9556V18.587C8.01918 17.2784 9.08509 16.2109 10.3974 16.2109C11.7096 16.2109 12.7755 17.2758 12.7755 18.587V20.9556C12.7755 22.2642 11.7096 23.3317 10.3974 23.3317ZM10.3974 17.4818C9.78648 17.4818 9.28872 17.9791 9.28872 18.5895V20.9581C9.28872 21.5684 9.78648 22.0657 10.3974 22.0657C11.0083 22.0657 11.506 21.5684 11.506 20.9581V18.5895C11.506 17.9791 11.0083 17.4818 10.3974 17.4818Z" fill="var(--fill-0, white)"/>
<path id="Vector_7" d="M18.6191 27.1971C18.3375 27.1971 18.0962 26.9936 18.0484 26.7148L16.9423 20.1943L16.0146 25.3208C15.9644 25.6021 15.713 25.803 15.4314 25.7955C15.1473 25.788 14.9085 25.577 14.8708 25.2932L13.7471 16.9115C13.7043 16.595 13.9281 16.3036 14.2448 16.2609C14.5616 16.2182 14.8532 16.4418 14.8959 16.7582L15.5294 21.4904L16.3917 16.7306C16.442 16.4543 16.6808 16.2534 16.9624 16.2534C16.9624 16.2534 16.9624 16.2534 16.9649 16.2534C17.2465 16.2534 17.4853 16.4593 17.5331 16.7356L18.4883 22.3695L19.0992 16.6251C19.1319 16.3061 19.4185 16.075 19.7378 16.1102C20.057 16.1429 20.2858 16.4292 20.2531 16.7482L19.1973 26.6771C19.1671 26.966 18.9283 27.187 18.6392 27.1945C18.6342 27.1945 18.6266 27.1945 18.6216 27.1945L18.6191 27.1971Z" fill="var(--fill-0, white)"/>
</g>
</g>
<defs>
<clipPath id="clip0_0_86">
<rect width="23" height="31" fill="white"/>
</clipPath>
</defs>
</svg>
