<svg preserveAspectRatio="none" width="100%" height="100%" overflow="visible" style="display: block;" viewBox="0 0 62.9125 14.5803" fill="none" xmlns="http://www.w3.org/2000/svg">
<g id="Food logo vectors">
<path id="Union" fill-rule="evenodd" clip-rule="evenodd" d="M57.7429 11.4312H59.333L59.9426 10.8223V4.50162e-05H57.7429V11.4312ZM12.0581 11.4042L12.9989 10.4482V11.4042H14.9568V3.0314H12.7517V8.84469L12.1817 9.35357H9.93059V3.0314H7.72548V10.0472L9.08248 11.4042H12.0581ZM7.10839 10.0473L5.7514 11.4043H1.35699L0 10.0473V8.81395H2.06639V9.76989H4.91837V9.06048L0.0467185 6.40827V4.38857L1.3879 3.03156H5.61268L7.2622 4.38857V5.71468L5.40784 5.70749V4.65882L2.2202 4.66601V5.37542L7.10839 8.02763V10.0473ZM18.6876 3.03207H21.6941L23.0504 4.38836V10.0478L21.6941 11.4041H17.9933V13.9694L17.3824 14.5803H15.7889V3.03207H17.7475V3.98874L18.6876 3.03207ZM17.994 9.3988H20.8309V5.08268H18.5647L17.994 5.59084V9.3988ZM23.7313 4.38841L25.0724 3.0314H29.4518L30.7929 4.38841V7.6264H25.8897V9.61519H28.6647V8.48962H30.7922V10.0472L29.451 11.4042H25.0724L23.7313 10.0472V4.38841ZM25.8897 6.51664H28.6647V4.82038H25.8897V6.51664ZM34.5233 3.0314L33.3977 4.15697V3.0314H31.4405V11.4035H33.0398L33.6449 10.799V5.74542L34.2925 5.14382H36.4049V3.0314H34.5233ZM44.6493 3.07692L43.8632 3.86157L43.0786 3.07692H40.0634L39.1253 4.03155V3.07692H37.1709V11.4312H39.3706V5.63169L39.94 5.12317H42.1713V11.4312H44.3717V5.71632L44.9642 5.12317H47.1108V11.4312H49.3105V4.43176L47.9571 3.07692H44.6493ZM54.8493 4.96964H52.7206V4.97036L52.1103 5.58072V5.78585H50.0332V4.43172L51.3873 3.07759H55.6182L56.9723 4.43172V11.4326H55.1262V10.4636L54.1723 11.4326H51.2797L49.9256 10.0785V8.04727L51.2797 6.69314H54.8493V4.96964ZM54.2956 9.6933L54.8493 9.21635V7.878H52.0493V9.6933H54.2956ZM62.3021 11.4312H60.7113V4.50162e-05H62.9125V10.8223L62.3021 11.4312Z" fill="var(--fill-0, #2122B8)"/>
</g>
</svg>
