<svg preserveAspectRatio="none" width="100%" height="100%" overflow="visible" style="display: block;" viewBox="0 0 37.5804 16.7992" fill="none" xmlns="http://www.w3.org/2000/svg">
<g id="Group">
<g id="Vector">
</g>
<path id="Vector_2" d="M10.917 4.60445L9.76948 5.7498L8.62407 4.60445H4.22252L2.85305 5.99793V4.60445H0V16.7992H3.21113V8.33364L4.04244 7.59137H7.29963V16.7992H10.5118V8.45719L11.3766 7.59137H14.5103V16.7992H17.7214V6.58212L15.7457 4.60445H10.917Z" fill="#1F20B7"/>
<path id="Vector_3" d="M22.6993 7.25401H25.8067V9.76981H20.5959L18.6191 11.7464V14.7114L20.5959 16.688H24.8184L26.2109 15.2736V16.688H28.9058V6.46881L26.9291 4.49219H20.7529L18.7762 6.46881V8.44543H21.8083V8.146L22.6993 7.25401ZM25.8067 13.4529L24.9985 14.1491H21.7193V11.4993H25.8067V13.4529Z" fill="#1F20B7"/>
<path id="Vector_4" d="M30.0312 16.6864H32.3524L33.2424 15.7975V0.00027041H30.0312V16.6864Z" fill="#1F20B7"/>
<path id="Vector_5" d="M34.3672 16.7703H36.6894L37.5804 15.8814V0.0841918H34.3672V16.7703Z" fill="#1F20B7"/>
</g>
</svg>
