<svg preserveAspectRatio="none" width="100%" height="100%" overflow="visible" style="display: block;" viewBox="0 0 51 13" fill="none" xmlns="http://www.w3.org/2000/svg">
<g id="Food logo vectors">
<g id="noon Food logo - English" clip-path="url(#clip0_0_15)">
<path id="Vector" d="M7.30334 0.0527778C5.25777 0.0527778 3.23614 0.0527778 1.29824 0.0527778C0.724045 0.0527778 0.281437 0.254794 -0.0295831 0.647602C-0.292756 0.995508 -0.316678 1.36587 -0.316678 1.62401C-0.316678 2.86976 -0.316678 4.1155 -0.316678 5.36133L-0.316678 7.63954C-0.316678 8.95265 -0.316678 10.2545 -0.316678 11.5676C-0.316678 11.7471 -0.304719 11.9044 -0.268832 12.0389C-0.137246 12.6225 0.353212 13.049 0.975254 13.1388C1.07095 13.15 1.15469 13.1613 1.25039 13.1613C1.83654 13.1613 2.33897 12.9032 2.62605 12.443C2.81745 12.1399 2.84137 11.8144 2.84137 11.6013C2.84137 10.681 2.84137 9.77196 2.84137 8.85164V7.95381C4.02565 7.95381 5.19796 7.95381 6.38224 7.95381C6.52578 7.95381 6.65737 7.95381 6.80091 7.93132C7.21961 7.87529 7.59043 7.65079 7.81772 7.30278C8.045 6.96622 8.11678 6.55094 7.98519 6.18064C7.80575 5.61938 7.25549 5.22659 6.63344 5.2041C6.54971 5.2041 6.46597 5.2041 6.38224 5.2041H6.34636C5.17403 5.2041 4.00173 5.2041 2.82942 5.2041C2.82942 4.35125 2.82942 3.53194 2.82942 2.81364H3.92995C5.01854 2.81364 6.10711 2.81364 7.18371 2.81364H7.24353C7.33922 2.81364 7.44688 2.81364 7.55455 2.81364C8.05697 2.75753 8.49957 2.47695 8.72685 2.07292C8.94218 1.68011 8.94218 1.21998 8.70292 0.804718C8.51153 0.468036 8.11678 0.0640043 7.27941 0.0640043L7.30334 0.0527778Z" fill="var(--fill-0, #E5004E)"/>
<path id="Vector_2" d="M50.8106 5.56335C50.6671 4.35125 50.2962 3.3299 49.6742 2.45451C49.1359 1.68012 48.4302 1.07407 47.6047 0.658827C46.7794 0.254794 45.8584 0.0527778 44.7936 0.0527778C43.2145 0.0527778 41.6835 0.0527778 40.3916 0.0527778C39.8293 0.0527778 39.3866 0.254795 39.0875 0.636377C38.8125 0.984283 38.7885 1.36587 38.7885 1.62401C38.7885 2.88099 38.7885 4.12674 38.7885 5.38363V11.4104C38.7885 11.5564 38.7885 11.7134 38.8125 11.8931C38.8843 12.4767 39.2789 12.9255 39.8651 13.1052C40.0925 13.1725 40.3078 13.1837 40.4753 13.1837C41.0852 13.1837 41.6954 13.1837 42.3055 13.1837C42.9873 13.1837 43.6572 13.1837 44.339 13.1837H44.363C44.8415 13.1837 45.2361 13.1725 45.607 13.1388C46.8152 13.0265 47.856 12.6002 48.7292 11.8482C49.6263 11.0738 50.2365 10.0862 50.5953 8.82915C50.8824 7.81907 50.9662 6.71922 50.8227 5.58564L50.8106 5.56335ZM47.3417 8.50364C47.1143 9.17715 46.7197 9.67095 46.1453 10.03C45.8702 10.1985 45.5473 10.3105 45.1285 10.3555C44.9134 10.378 44.6741 10.4005 44.3988 10.4005C43.5735 10.4005 42.748 10.4005 41.9226 10.4005V2.80241C42.1021 2.80241 42.2816 2.80241 42.4609 2.80241C43.1547 2.80241 43.8844 2.80241 44.5902 2.80241C45.2361 2.80241 45.7268 2.92587 46.1453 3.19522C46.6239 3.49821 46.9827 3.91348 47.234 4.4858C47.4612 5.00208 47.5928 5.56335 47.6286 6.2704C47.6765 7.05598 47.5689 7.79658 47.3296 8.50364H47.3417Z" fill="var(--fill-0, #E5004E)"/>
<path id="Vector_3" d="M35.5461 1.84884C34.4934 0.782655 33.1775 0.142949 31.6463 -0.0590677C30.6057 -0.193752 29.6128 -0.126418 28.6678 0.14295C27.1126 0.60309 25.8804 1.48971 24.9952 2.8028C24.2416 3.93638 23.8588 5.21575 23.8709 6.59613C23.8709 7.56143 24.0502 8.48155 24.4211 9.34584C24.9713 10.614 25.8446 11.6128 26.9931 12.3199C28.0935 12.9934 29.3017 13.3299 30.6057 13.3299C30.9884 13.3299 31.3833 13.2964 31.79 13.2402C32.9382 13.0719 33.9909 12.6229 34.9122 11.9046C36.0007 11.063 36.7543 9.95189 37.161 8.60505C37.4958 7.50521 37.5437 6.34933 37.3165 5.17077C37.0533 3.88016 36.4553 2.74669 35.5342 1.82639L35.5461 1.84884ZM34.2302 6.61862C34.2302 7.50521 34.0149 8.246 33.5842 8.89683C33.0101 9.78361 32.2683 10.2774 31.3233 10.4344C29.9955 10.6477 28.9429 10.3109 28.1055 9.39063C27.5433 8.78458 27.2322 8.04398 27.1245 7.13491C27.0408 6.37163 27.1245 5.68706 27.3638 5.04747C27.8065 3.90264 28.548 3.19561 29.6007 2.89258C29.9837 2.78035 30.3543 2.72424 30.7134 2.72424C31.467 2.72424 32.1607 2.97114 32.7829 3.46495C33.5244 4.04863 33.967 4.82296 34.1465 5.8218C34.1944 6.12482 34.2183 6.38287 34.2183 6.61862H34.2302Z" fill="var(--fill-0, #E5004E)"/>
<path id="Vector_4" d="M20.6789 1.50139C19.0878 0.165855 17.1858 -0.350391 15.0206 -0.0361604C13.5014 0.188306 12.2095 0.861688 11.1688 1.98398C10.4391 2.75837 9.92467 3.68998 9.62561 4.74484C9.44617 5.38463 9.36243 6.06919 9.38636 6.83228C9.39833 7.39354 9.4701 7.89859 9.58973 8.35865C9.97252 9.78401 10.7261 10.9624 11.8267 11.849C13.0349 12.8255 14.4704 13.3305 16.0853 13.3416C16.1092 13.3416 16.1331 13.3416 16.1571 13.3416C17.2696 13.3416 18.3222 13.106 19.2792 12.6347C20.296 12.1297 21.1333 11.4114 21.7674 10.5023C22.5808 9.3127 22.9756 8.02189 22.9517 6.52926C22.9636 5.73244 22.8082 4.87958 22.4852 4.06027C22.0785 3.03895 21.4684 2.17477 20.6789 1.50139ZM16.3006 10.4911C15.236 10.4911 14.4464 10.188 13.7885 9.5595C13.2622 9.05446 12.9033 8.41487 12.7358 7.66284C12.5205 6.73127 12.5803 5.83344 12.9153 5.00289C13.2861 4.04903 13.9081 3.39808 14.7933 3.00529C15.212 2.82571 15.6666 2.73592 16.1331 2.73592C16.3126 2.73592 16.492 2.74715 16.6714 2.7696C17.7481 2.91549 18.5615 3.46543 19.1596 4.44182C19.5185 5.03662 19.7099 5.68765 19.7338 6.42825C19.7577 7.22507 19.6261 7.90983 19.3151 8.51588C18.8366 9.45849 18.1548 10.0533 17.2217 10.3451C16.8509 10.4573 16.5159 10.5023 16.3126 10.4911H16.3006Z" fill="var(--fill-0, #E5004E)"/>
</g>
</g>
<defs>
<clipPath id="clip0_0_15">
<rect width="51" height="13" fill="white"/>
</clipPath>
</defs>
</svg>
