<svg preserveAspectRatio="none" width="100%" height="100%" overflow="visible" style="display: block;" viewBox="0 0 33 45" fill="none" xmlns="http://www.w3.org/2000/svg">
<g id="Layer_1" clip-path="url(#clip0_0_409)">
<path id="Vector" d="M0 15.4923V29.5079C0 30.6017 0.631217 31.5971 1.61591 32.0528L29.0828 44.7448C30.9152 45.5907 33 44.238 33 42.1999V2.80027C33 0.762109 30.9152 -0.590588 29.0828 0.255304L1.61591 12.951C0.631217 13.4067 0 14.3985 0 15.4959V15.4923Z" fill="var(--fill-0, #231F20)"/>
<g id="Group">
<path id="Vector_2" d="M8.81857 21.691C8.3172 21.691 7.90962 21.279 7.90962 20.7722V17.9027C7.90962 17.2063 7.35054 16.6412 6.66161 16.6412C5.97268 16.6412 5.41361 17.2063 5.41361 17.9027V20.7722C5.41361 21.279 5.00602 21.691 4.50465 21.691C4.00329 21.691 3.5957 21.279 3.5957 20.7722V17.9027C3.5957 16.1927 4.97356 14.7999 6.66522 14.7999C8.35688 14.7999 9.73473 16.1927 9.73473 17.9027V20.7722C9.73473 21.279 9.32715 21.691 8.82578 21.691H8.81857Z" fill="var(--fill-0, white)"/>
<path id="Vector_3" d="M14.9179 21.691C13.0387 21.691 11.5057 20.145 11.5057 18.2418V14.8035C11.5057 12.9039 13.0351 11.3543 14.9179 11.3543C16.8008 11.3543 18.3301 12.9003 18.3301 14.8035V18.2418C18.3301 20.1414 16.8008 21.691 14.9179 21.691ZM14.9179 13.1993C14.0414 13.1993 13.3273 13.9212 13.3273 14.8072V18.2454C13.3273 19.1314 14.0414 19.8534 14.9179 19.8534C15.7944 19.8534 16.5086 19.1314 16.5086 18.2454V14.8072C16.5086 13.9212 15.7944 13.1993 14.9179 13.1993Z" fill="var(--fill-0, white)"/>
<path id="Vector_4" d="M26.7127 21.5707C26.3123 21.5707 25.966 21.2826 25.8939 20.8816L24.4006 12.6742L22.9722 20.8743C22.9001 21.2826 22.5466 21.5707 22.1354 21.5707C21.7242 21.5634 21.3816 21.2535 21.3275 20.8415L19.827 9.55317C19.7657 9.09376 20.0867 8.67082 20.5412 8.60883C20.9956 8.54685 21.414 8.87135 21.4754 9.33076L22.2617 15.2484L23.5602 7.78117C23.6287 7.3801 23.975 7.08842 24.3754 7.08477C24.7757 7.08477 25.122 7.37281 25.1941 7.77388L26.5431 15.201L27.6649 6.0748C27.7226 5.6154 28.1374 5.28725 28.5919 5.34559C29.0464 5.40392 29.371 5.82322 29.3133 6.28263L27.5278 20.8342C27.4773 21.2462 27.1383 21.5597 26.7271 21.5707C26.7199 21.5707 26.709 21.5707 26.7018 21.5707H26.7127Z" fill="var(--fill-0, white)"/>
<path id="Vector_5" d="M8.81857 31.5424C8.3172 31.5424 7.90962 31.1304 7.90962 30.6236V26.4124C7.90962 25.716 7.35054 25.1508 6.66161 25.1508C5.97268 25.1508 5.41361 25.716 5.41361 26.4124V29.2819C5.41361 29.7887 5.00602 30.2007 4.50465 30.2007C4.00329 30.2007 3.5957 29.7887 3.5957 29.2819V26.4124C3.5957 24.7024 4.97356 23.3096 6.66522 23.3096C8.35688 23.3096 9.73473 24.7024 9.73473 26.4124V30.6236C9.73473 31.1304 9.32715 31.5424 8.82578 31.5424H8.81857Z" fill="var(--fill-0, white)"/>
<path id="Vector_6" d="M14.9179 33.8689C13.0387 33.8689 11.5057 32.323 11.5057 30.4197V26.9815C11.5057 25.0819 13.0351 23.5323 14.9179 23.5323C16.8008 23.5323 18.3301 25.0782 18.3301 26.9815V30.4197C18.3301 32.3193 16.8008 33.8689 14.9179 33.8689ZM14.9179 25.3772C14.0414 25.3772 13.3273 26.0991 13.3273 26.9851V30.4234C13.3273 31.3094 14.0414 32.0313 14.9179 32.0313C15.7944 32.0313 16.5086 31.3094 16.5086 30.4234V26.9851C16.5086 26.0991 15.7944 25.3772 14.9179 25.3772Z" fill="var(--fill-0, white)"/>
<path id="Vector_7" d="M26.7126 39.4798C26.3086 39.4798 25.9624 39.1845 25.8938 38.7798L24.3068 29.3145L22.9758 36.7562C22.9037 37.1646 22.543 37.4562 22.139 37.4453C21.7314 37.4344 21.3888 37.1281 21.3347 36.7161L19.7224 24.5491C19.661 24.0897 19.9821 23.6667 20.4365 23.6048C20.891 23.5428 21.3094 23.8673 21.3707 24.3267L22.2797 31.1959L23.5169 24.2866C23.589 23.8855 23.9317 23.5938 24.3356 23.5938C24.3356 23.5938 24.3356 23.5938 24.3393 23.5938C24.7432 23.5938 25.0859 23.8928 25.1544 24.2939L26.5251 32.472L27.4016 24.1334C27.4484 23.6704 27.8596 23.3349 28.3177 23.386C28.7758 23.4334 29.104 23.849 29.0571 24.3121L27.5422 38.7251C27.4989 39.1444 27.1563 39.4652 26.7415 39.4762C26.7343 39.4762 26.7234 39.4762 26.7162 39.4762L26.7126 39.4798Z" fill="var(--fill-0, white)"/>
</g>
</g>
<defs>
<clipPath id="clip0_0_409">
<rect width="33" height="45" fill="white"/>
</clipPath>
</defs>
</svg>
