<svg preserveAspectRatio="none" width="100%" height="100%" overflow="visible" style="display: block;" viewBox="0 0 13.8987 10.4998" fill="none" xmlns="http://www.w3.org/2000/svg">
<g id="Group">
<path id="Vector" d="M13.6769 2.35479C13.5052 1.23979 12.6027 0.374792 11.4819 0.250625C8.47438 -0.0835417 5.42437 -0.0835417 2.41687 0.250625C1.29604 0.374792 0.393542 1.24063 0.221875 2.35479C-0.0739583 4.27563 -0.0739583 6.22396 0.221875 8.14479C0.393542 9.25896 1.29604 10.1248 2.41687 10.249C3.92021 10.4156 5.43521 10.4998 6.94937 10.4998C8.46354 10.4998 9.97771 10.4165 11.4819 10.249C12.6027 10.1248 13.5052 9.25896 13.6769 8.14479C13.9727 6.22396 13.9727 4.27563 13.6769 2.35479ZM2.5277 1.24396C3.99437 1.08063 5.47187 0.999791 6.94937 0.999791C8.42687 0.999791 9.90438 1.08146 11.371 1.24396C12.0435 1.31896 12.5852 1.83812 12.6877 2.50645C12.751 2.91979 12.7994 3.33396 12.8344 3.74896H1.06354C1.09854 3.33396 1.14687 2.91895 1.21021 2.50645C1.31271 1.83812 1.85438 1.31813 2.52688 1.24396H2.5277ZM12.6885 7.99229C12.586 8.66063 12.0444 9.18063 11.3719 9.2548C8.4377 9.58063 5.46187 9.58063 2.5277 9.2548C1.8552 9.1798 1.31354 8.66063 1.21104 7.99229C1.04521 6.91646 0.978537 5.83229 1.00854 4.74979H12.891C12.921 5.83229 12.8544 6.91729 12.6885 7.99229Z" fill="var(--fill-0, #666D85)"/>
<path id="Vector_2" d="M10.616 6.24978C10.3594 6.24978 10.126 6.34728 9.94937 6.50561C9.7727 6.34645 9.53937 6.24978 9.2827 6.24978C8.7302 6.24978 8.2827 6.69728 8.2827 7.24978C8.2827 7.80229 8.7302 8.24979 9.2827 8.24979C9.53937 8.24979 9.7727 8.15229 9.94937 7.99396C10.126 8.15229 10.3594 8.24979 10.616 8.24979C11.1685 8.24979 11.616 7.80229 11.616 7.24978C11.616 6.69728 11.1685 6.24978 10.616 6.24978ZM9.94937 7.99396C9.7452 7.81062 9.61604 7.54562 9.61604 7.24978C9.61604 6.95395 9.7452 6.68895 9.94937 6.50561C10.1535 6.68895 10.2827 6.95395 10.2827 7.24978C10.2827 7.54562 10.1535 7.81062 9.94937 7.99396Z" fill="var(--fill-0, #666D85)"/>
</g>
</svg>
