<svg preserveAspectRatio="none" width="100%" height="100%" overflow="visible" style="display: block;" viewBox="0 0 12.9994 12.9994" fill="none" xmlns="http://www.w3.org/2000/svg">
<path id="Vector" d="M12.3027 7.85438C12.3619 6.05188 12.3277 4.24021 12.1977 2.44771C12.1085 1.21854 11.1135 0.223542 9.88438 0.134375C7.41688 -0.0447917 4.91521 -0.0447917 2.44688 0.134375C1.21771 0.223542 0.224375 1.21771 0.134375 2.44771C-0.0447917 4.91521 -0.0447917 7.41688 0.134375 9.88521C0.223542 11.1144 1.21771 12.1077 2.44771 12.1977C3.68104 12.2877 4.92354 12.3319 6.16604 12.3319C6.72938 12.3319 7.29188 12.321 7.85438 12.3027C8.39688 12.7377 9.08438 12.9994 9.83271 12.9994C11.5785 12.9994 12.9994 11.5785 12.9994 9.83271C12.9994 9.08438 12.7377 8.39688 12.3027 7.85438ZM8.70271 7.98521C9.03188 7.78271 9.41938 7.66604 9.83271 7.66604C11.0277 7.66604 11.9994 8.63771 11.9994 9.83271C11.9994 10.2519 11.8794 10.6435 11.6719 10.9752L8.70188 7.98438L8.70271 7.98521ZM2.51937 11.2002C1.78187 11.1469 1.18604 10.5502 1.13188 9.81188C0.956042 7.39271 0.956042 4.93938 1.13188 2.51938C1.18521 1.78188 1.78188 1.18604 2.52021 1.13187C3.12271 1.08771 3.72688 1.05521 4.33271 1.03354V4.83271C4.33271 4.96521 4.38521 5.09271 4.47854 5.18604C4.57188 5.27938 4.69937 5.33271 4.83187 5.33271H7.49854C7.63104 5.33271 7.75854 5.28021 7.85187 5.18604C7.94521 5.09187 7.99854 4.96521 7.99854 4.83271V1.03354C8.60354 1.05521 9.20854 1.08854 9.81104 1.13187C10.5485 1.18521 11.146 1.78271 11.1994 2.52021C11.3085 4.01854 11.3485 5.53104 11.3219 7.03938C10.8777 6.80104 10.3702 6.66604 9.83188 6.66604C8.08604 6.66604 6.66521 8.08688 6.66521 9.83271C6.66521 10.371 6.80104 10.8794 7.03937 11.3235C5.53021 11.3494 4.01854 11.3094 2.51854 11.2002H2.51937ZM7.66604 9.83271C7.66604 9.41354 7.78604 9.02188 7.99354 8.69021L10.9635 11.681C10.6344 11.8835 10.2469 12.0002 9.83354 12.0002C8.63854 12.0002 7.66688 11.0285 7.66688 9.83354L7.66604 9.83271Z" fill="var(--fill-0, #666D85)"/>
</svg>
