<svg preserveAspectRatio="none" width="100%" height="100%" overflow="visible" style="display: block;" viewBox="0 0 11.6668 13" fill="none" xmlns="http://www.w3.org/2000/svg">
<path id="Vector" d="M11.4551 4.82084C11.4551 4.82084 11.4551 4.8175 11.4551 4.815C11.3059 3.83 10.5118 3.04917 9.5251 2.91583C9.4601 2.90667 9.39427 2.89916 9.32927 2.89083C9.54094 2.59166 9.66677 2.2275 9.66677 1.83333C9.66677 0.8225 8.84427 0 7.83344 0C7.01677 0 6.29011 0.394168 5.83344 1.00167C5.37677 0.394168 4.65011 0 3.83344 0C2.82261 0 2.00011 0.8225 2.00011 1.83333C2.00011 2.22667 2.1251 2.59166 2.3376 2.89083C2.27094 2.89916 2.2051 2.90667 2.13844 2.91583C1.15344 3.04917 0.360937 3.82833 0.21177 4.81167C0.21177 4.81333 0.210102 4.82249 0.210102 4.82416C-0.0698979 6.81999 -0.0698936 8.84334 0.209273 10.8392L0.21177 10.8592C0.360937 11.845 1.1551 12.625 2.14344 12.7558L2.16677 12.7592C3.37344 12.9192 4.58761 13 5.80261 13C7.01761 13 8.27427 12.9167 9.50094 12.7508L9.52594 12.7475C10.5126 12.6142 11.3068 11.8333 11.4568 10.8425C11.7368 8.84418 11.7368 6.81834 11.4568 4.82001L11.4551 4.82084ZM6.33177 2.50083C6.33177 1.67333 7.00427 1.00083 7.83177 1.00083C8.29094 1.00083 8.6651 1.375 8.6651 1.83417C8.6651 2.29333 8.29094 2.6675 7.83177 2.6675H6.33177V2.50083ZM3.83177 1.00083C4.65927 1.00083 5.33177 1.67333 5.33177 2.50083V2.6675H3.83177C3.3726 2.6675 2.99844 2.29333 2.99844 1.83417C2.99844 1.375 3.3726 1.00083 3.83177 1.00083ZM2.27427 3.90749C3.4551 3.74749 4.64344 3.66834 5.83177 3.66834C7.0201 3.66834 8.20927 3.74832 9.39011 3.90749C9.93927 3.98166 10.3809 4.41584 10.4651 4.96334C10.5134 5.30834 10.5526 5.655 10.5834 6.00167H1.0801C1.11094 5.655 1.1501 5.30834 1.19927 4.9625C1.2826 4.41584 1.7226 3.98249 2.27427 3.90749ZM2.27344 11.7658C1.72344 11.6925 1.28177 11.2592 1.2001 10.7158L1.19844 10.7008C1.02677 9.47416 0.966768 8.23583 1.01677 7H5.3326V11.995C4.31844 11.9775 3.30511 11.9017 2.29761 11.7675L2.27427 11.7642L2.27344 11.7658ZM10.4651 10.6992C10.3818 11.2475 9.94011 11.6833 9.39011 11.7575L9.36511 11.7608C8.35844 11.8967 7.34594 11.975 6.33177 11.995V7.00083H10.6476C10.6976 8.23667 10.6368 9.47416 10.4651 10.6992Z" fill="var(--fill-0, #033D38)"/>
</svg>
