<svg preserveAspectRatio="none" width="100%" height="100%" overflow="visible" style="display: block;" viewBox="0 0 15.8317 11.3404" fill="none" xmlns="http://www.w3.org/2000/svg">
<g id="Group">
<path id="Vector" d="M15.2967 4.65625L14.5175 3.87708C14.1708 3.53042 13.7108 3.34042 13.2208 3.34042H12.21C12.2008 3.04542 12.1825 2.75042 12.1533 2.45625C12.04 1.30625 11.1625 0.389583 10.0192 0.22625C7.90667 -0.0754167 5.765 -0.0754167 3.6525 0.22625L3.40917 0.26125C2.41333 0.40375 1.60417 1.12375 1.34583 2.09542C1.26583 2.39792 1.19583 2.70208 1.135 3.00792H1C0.724167 3.00792 0.5 3.23208 0.5 3.50792C0.5 3.78375 0.724167 4.00792 1 4.00792H2.66667C2.9425 4.00792 3.16667 3.78375 3.16667 3.50792C3.16667 3.23208 2.9425 3.00792 2.66667 3.00792H2.15583C2.20333 2.78875 2.255 2.56958 2.3125 2.35208C2.46667 1.76875 2.95333 1.33708 3.55 1.25125L3.79333 1.21625C4.8025 1.07208 5.81917 0.999583 6.835 0.999583C7.85083 0.999583 8.8675 1.07208 9.87667 1.21625C10.5625 1.31458 11.0892 1.86458 11.1575 2.55458C11.2892 3.89792 11.1983 5.24542 10.8867 6.55875L10.7617 7.08458C10.08 7.27125 9.53083 7.78292 9.29333 8.44208C9.28 8.44208 9.26667 8.44375 9.25333 8.44375H6.03833C5.7375 7.60792 4.9375 7.00792 3.99917 7.00792C3.27083 7.00792 2.62583 7.36958 2.2325 7.92208C2.02583 7.68458 1.8925 7.38292 1.86833 7.04875V7.03792C1.86667 7.02792 1.86667 7.01792 1.86583 7.00792H0.864166C0.866666 7.04125 0.8675 7.07458 0.87 7.10792V7.11875C0.9225 7.85542 1.29667 8.50042 1.84667 8.92292C1.8375 9.00542 1.83167 9.08875 1.83167 9.17375C1.83167 10.3687 2.80333 11.3404 3.99833 11.3404C5.10167 11.3404 6.015 10.5113 6.1475 9.44292H9.1825C9.31583 10.5113 10.2283 11.3404 11.3317 11.3404C12.5267 11.3404 13.4983 10.3687 13.4983 9.17375C13.4983 9.11792 13.4958 9.06208 13.4917 9.00708H14.4967C15.1042 9.00708 15.6033 8.55125 15.6583 7.94625L15.8242 6.11875C15.8733 5.57542 15.6808 5.04208 15.295 4.65625H15.2967ZM4 10.3396C3.35667 10.3396 2.83333 9.81625 2.83333 9.17292C2.83333 8.52958 3.35667 8.00625 4 8.00625C4.64333 8.00625 5.16667 8.52958 5.16667 9.17292C5.16667 9.81625 4.64333 10.3396 4 10.3396ZM11.3333 10.3396C10.69 10.3396 10.1667 9.81625 10.1667 9.17292C10.1667 8.52958 10.69 8.00625 11.3333 8.00625C11.9767 8.00625 12.5 8.52958 12.5 9.17292C12.5 9.81625 11.9767 10.3396 11.3333 10.3396ZM14.8317 6.00625H12.0208C12.1175 5.45458 12.1783 4.89792 12.2033 4.33958H13.2208C13.4433 4.33958 13.6525 4.42625 13.81 4.58375L14.5892 5.36292C14.7592 5.53292 14.8475 5.76708 14.8317 6.00625Z" fill="var(--fill-0, #666D85)"/>
<path id="Vector_2" d="M7.345 2.03958C7.12667 1.95625 6.88 2.03458 6.75083 2.22958L5.00083 4.85458C4.89833 5.00792 4.88916 5.20542 4.97583 5.36792C5.0625 5.53042 5.2325 5.63208 5.41666 5.63208H6.29833L6.08833 7.10292C6.055 7.33375 6.18666 7.55708 6.405 7.64042C6.46333 7.66292 6.52333 7.67375 6.58333 7.67375C6.74666 7.67375 6.90416 7.59375 6.99916 7.45125L8.74916 4.82625C8.85166 4.67292 8.86083 4.47542 8.77417 4.31292C8.6875 4.15042 8.5175 4.04875 8.33333 4.04875H7.45167L7.66167 2.57792C7.695 2.34708 7.56333 2.12375 7.345 2.04042V2.03958Z" fill="var(--fill-0, #666D85)"/>
<path id="Vector_3" d="M0.666667 8.84042C0.850762 8.84042 1 8.69118 1 8.50708C1 8.32299 0.850762 8.17375 0.666667 8.17375C0.482572 8.17375 0.333333 8.32299 0.333333 8.50708C0.333333 8.69118 0.482572 8.84042 0.666667 8.84042Z" fill="var(--fill-0, #666D85)"/>
<path id="Vector_4" d="M2.66667 6.00625C2.9425 6.00625 3.16667 5.78208 3.16667 5.50625C3.16667 5.23042 2.9425 5.00625 2.66667 5.00625H0.5C0.224167 5.00625 0 5.23042 0 5.50625C0 5.78208 0.224167 6.00625 0.5 6.00625H2.66667Z" fill="var(--fill-0, #666D85)"/>
<path id="Vector_5" d="M3.66667 3.17292C3.85076 3.17292 4 3.02368 4 2.83958C4 2.65549 3.85076 2.50625 3.66667 2.50625C3.48257 2.50625 3.33333 2.65549 3.33333 2.83958C3.33333 3.02368 3.48257 3.17292 3.66667 3.17292Z" fill="var(--fill-0, #666D85)"/>
</g>
</svg>
