<svg preserveAspectRatio="none" width="100%" height="100%" overflow="visible" style="display: block;" viewBox="0 0 8.4 8.4" fill="none" xmlns="http://www.w3.org/2000/svg">
<path id="Vector" d="M4.725 0.525C4.725 0.23505 4.48995 0 4.2 0C3.91005 0 3.675 0.23505 3.675 0.525V3.675H0.525C0.235051 3.675 0 3.91005 0 4.2C0 4.48995 0.23505 4.725 0.525 4.725L3.675 4.725V7.875C3.675 8.16495 3.91005 8.4 4.2 8.4C4.48995 8.4 4.725 8.16495 4.725 7.875V4.725L7.875 4.725C8.16495 4.725 8.4 4.48995 8.4 4.2C8.4 3.91005 8.16495 3.675 7.875 3.675H4.725V0.525Z" fill="var(--fill-0, #2F33C0)"/>
</svg>
