<svg preserveAspectRatio="none" width="100%" height="100%" overflow="visible" style="display: block;" viewBox="0 0 319 184.905" fill="none" xmlns="http://www.w3.org/2000/svg">
<g id="Group">
<path id="Vector" d="M318.658 90.4037C318.278 83.1937 316.828 76.0537 314.198 69.2437C310.328 59.2237 304.028 50.4137 296.298 42.9937C292.198 39.0637 288.278 34.8637 283.738 31.4237C275.698 25.3237 266.578 20.7237 257.108 17.2937C238.958 10.7337 220.028 6.83373 200.978 3.96373C170.268 -0.676273 139.528 -1.99627 108.938 4.14373C81.3384 9.68373 54.5884 22.8037 32.7584 40.6637C27.5084 44.9537 20.5684 52.0637 16.7984 57.7237C7.92842 71.0337 18.2684 87.3037 24.5084 99.3537C30.0184 109.974 35.6684 120.524 41.4484 131.004C46.6184 140.374 51.5084 149.964 58.9584 157.794C76.4184 176.284 100.548 183.154 125.318 184.554C145.368 185.684 165.468 183.914 185.428 181.684C202.058 179.824 218.648 177.654 235.118 174.694C249.888 172.044 265.288 169.644 278.738 162.644C292.128 155.664 303.768 144.994 310.508 131.364C314.328 123.644 316.428 114.954 317.788 106.484C318.638 101.144 318.948 95.7437 318.668 90.3937L318.658 90.4037Z" fill="var(--fill-0, #30AE4A)"/>
<path id="Vector_2" d="M9.93842 87.9637C8.81842 76.5237 11.6784 65.0937 20.4284 55.7937C22.7084 53.3737 25.2584 51.2037 28.0284 49.3537C33.5984 45.6437 39.5984 42.4637 45.7684 39.8737C57.9684 34.7437 70.6984 30.5637 83.3384 26.6237C95.7584 22.7537 108.348 19.4137 121.128 16.9537C127.248 15.7737 133.398 14.7937 139.578 14.0237C162.648 11.1437 186.018 11.1137 209.168 12.8037C232.318 14.4937 237.438 12.5937 273.048 27.4837C285.658 32.7537 297.058 41.4437 305.528 52.2937C314.048 63.2037 318.568 75.8637 318.958 89.9237C319.408 106.294 316.258 126.254 305.988 139.074C287.498 162.124 255.838 166.394 227.418 168.024C207.898 169.144 188.298 168.764 168.758 168.774C159.168 168.774 149.568 168.764 139.978 168.724C102.078 168.584 65.2384 154.224 35.0384 131.794C34.1684 131.144 33.2884 130.544 32.4684 129.834C20.6884 119.644 11.4984 103.804 9.94842 87.9637H9.93842Z" fill="var(--fill-0, #C52A26)"/>
<path id="Vector_3" d="M13.2884 136.234C9.04842 131.474 5.60842 126.064 3.26842 119.964C-2.36158 105.314 -0.341582 88.6937 6.44842 74.7837C14.0584 59.2037 24.9084 50.6637 41.3984 45.6837C88.2484 31.5337 138.348 34.9237 187.038 29.9737C206.018 28.0437 224.918 24.8237 243.998 24.6337C251.368 24.5637 258.868 24.9637 265.828 27.3937C274.048 30.2637 281.078 35.8137 287.188 42.0137C295.588 50.5337 302.638 60.6037 306.418 71.9637C310.198 83.3237 310.528 96.0337 306.038 107.124C297.678 127.754 275.228 138.624 254.038 145.454C226.268 154.404 197.418 159.644 168.488 163.434C133.488 168.014 97.5784 170.434 63.1584 162.634C44.6284 158.434 25.6084 150.064 13.3084 136.244L13.2884 136.234Z" fill="var(--fill-0, #F06298)"/>
<path id="Vector_4" d="M128.288 26.2137C137.208 24.7037 146.408 22.9337 155.778 21.1537C174.348 17.6237 191.318 12.6037 206.628 12.6037C232.588 12.6037 253.548 17.6537 268.458 27.6537C289.018 41.4437 293.388 61.8537 293.428 76.5537C293.498 99.7037 284.288 118.814 266.048 133.364C241.318 153.104 201.178 162.724 153.008 160.454C112.258 158.534 75.4284 149.264 49.2984 134.344C31.6784 124.284 8.64842 106.264 8.63842 79.9937C8.63842 44.7637 50.3384 39.4137 128.268 26.2037L128.288 26.2137Z" fill="var(--fill-0, #F3E008)"/>
</g>
</svg>
