<svg preserveAspectRatio="none" width="100%" height="100%" overflow="visible" style="display: block;" viewBox="0 0 215.13 67.54" fill="none" xmlns="http://www.w3.org/2000/svg">
<g id="Group">
<path id="Vector" d="M37.83 0C59.54 0 71 12.92 71 29.71C71 49.56 55.41 67.54 33.17 67.54C10.93 67.54 0 54.62 0 37.97C0 18.12 15.59 0.00999832 37.83 0.00999832V0ZM37.16 18.12C27.44 18.12 21.04 27.18 21.04 36.9C21.04 44.76 25.97 49.42 33.96 49.42C43.55 49.42 50.08 40.36 50.08 30.64C50.08 22.78 45.15 18.12 37.16 18.12Z" fill="var(--fill-0, black)"/>
<path id="Vector_2" d="M121.88 29.84C122.15 28.64 122.55 26.78 122.55 25.18C122.55 20.12 118.29 18.12 113.76 18.12C107.77 18.12 103.1 21.32 100.04 24.38L90.85 65.94H70.34L84.59 1.6H105.1L103.23 9.46C108.16 4.93 114.55 0 124.14 0C137.06 0 144.79 6.93 144.79 16.65C144.79 17.85 144.39 20.65 144.12 21.98L134.4 65.94H113.89L121.88 29.84Z" fill="var(--fill-0, black)"/>
<path id="Vector_3" d="M185.56 0C201.81 0 215.13 10.26 215.13 29.04C215.13 33.04 214.33 37.97 213.8 40.23H168.24V41.03C168.24 44.23 173.03 51.69 183.69 51.69C189.02 51.69 195.28 50.22 198.74 47.69L205 61.28C198.74 65.54 189.95 67.54 182.09 67.54C161.58 67.54 147.86 56.88 147.86 38.37C147.86 17.72 163.58 0.00999832 185.56 0.00999832V0ZM197.02 25.98C197.02 21.85 193.56 15.86 184.63 15.86C176.9 15.86 171.31 21.99 170.24 26.92H196.88C197.01 26.65 197.01 26.25 197.01 25.99L197.02 25.98Z" fill="var(--fill-0, black)"/>
</g>
</svg>
