<svg preserveAspectRatio="none" width="100%" height="100%" overflow="visible" style="display: block;" viewBox="0 0 14 14" fill="none" xmlns="http://www.w3.org/2000/svg">
<g id="ri:mic-ai-fill">
<path id="Vector" d="M11.5331 4.39121L11.6734 4.06823C11.9203 3.49684 12.3723 3.03872 12.9403 2.78426L13.3734 2.59081C13.426 2.56664 13.4705 2.5279 13.5017 2.4792C13.5329 2.4305 13.5495 2.37388 13.5495 2.31604C13.5495 2.2582 13.5329 2.20157 13.5017 2.15287C13.4705 2.10417 13.426 2.06544 13.3734 2.04127L12.9643 1.85923C12.382 1.59752 11.9222 1.12245 11.6797 0.531894L11.5348 0.183226C11.5136 0.129216 11.4766 0.0828468 11.4286 0.0501638C11.3807 0.0174809 11.324 0 11.266 0C11.208 0 11.1513 0.0174809 11.1034 0.0501638C11.0554 0.0828468 11.0184 0.129216 10.9972 0.183226L10.8529 0.531323C10.6106 1.12199 10.1511 1.59726 9.56888 1.85923L9.15916 2.04184C9.10677 2.06608 9.06241 2.10481 9.03133 2.15344C9.00024 2.20208 8.98372 2.2586 8.98372 2.31632C8.98372 2.37405 9.00024 2.43056 9.03133 2.4792C9.06241 2.52784 9.10677 2.56657 9.15916 2.59081L9.59285 2.78369C10.1608 3.03841 10.6126 3.49673 10.8591 4.06823L10.9995 4.39121C11.1022 4.62746 11.4298 4.62746 11.5331 4.39121ZM8.06293 3.04733C8.21929 3.29461 8.4331 3.47741 8.70435 3.59573L9.02677 3.73668C9.24361 3.83102 9.41937 3.9638 9.55405 4.13499V5.70714C9.55405 6.46387 9.25344 7.18961 8.71835 7.7247C8.18326 8.25979 7.45752 8.5604 6.70079 8.5604C5.94405 8.5604 5.21832 8.25979 4.68323 7.7247C4.14814 7.18961 3.84753 6.46387 3.84753 5.70714V3.42453C3.84753 2.89489 3.99495 2.3757 4.27328 1.92509C4.55162 1.47448 4.94989 1.11023 5.42349 0.873133C5.8971 0.636032 6.42736 0.535436 6.95489 0.582605C7.48243 0.629774 7.98643 0.822848 8.41046 1.14021C8.2735 1.24293 8.15747 1.36923 8.06236 1.51912C7.91703 1.74733 7.84073 2.01267 7.84266 2.28323C7.84266 2.55942 7.91628 2.81412 8.0635 3.04733M1.59687 6.27779H2.74674C2.885 7.2278 3.36069 8.09628 4.08676 8.72433C4.81284 9.35238 5.74077 9.69803 6.70079 9.69803C7.66081 9.69803 8.58873 9.35238 9.31481 8.72433C10.0409 8.09628 10.5166 7.2278 10.6548 6.27779H11.8053C11.6755 7.43548 11.1562 8.51472 10.3325 9.33851C9.50885 10.1623 8.42968 10.6817 7.27201 10.8116V13.1256H6.13071V10.8116C4.97293 10.6818 3.89363 10.1625 3.06983 9.33867C2.24603 8.51487 1.72665 7.43557 1.59687 6.27779Z" fill="var(--fill-0, white)"/>
</g>
</svg>
