<svg width="16" height="16" viewBox="0 0 16 16" fill="none" xmlns="http://www.w3.org/2000/svg">
<path d="M4.08329 3.31891C6.68365 2.99375 9.31455 2.99375 11.9149 3.31891H11.9151C13.0118 3.45641 13.8887 4.2979 14.071 5.3884V5.38857C14.3592 7.11718 14.3592 8.88278 14.071 10.6114V10.6116C13.8887 11.702 13.0128 12.5436 11.915 12.6811C9.31463 13.0063 6.68365 13.0063 4.08329 12.6811H4.08313C2.98639 12.5436 2.10948 11.7021 1.9272 10.6116L1.92712 10.6114C1.63888 8.88278 1.63887 7.11717 1.92712 5.38857L1.9272 5.3884C2.10945 4.29805 2.98549 3.4564 4.08329 3.31891ZM11.7908 4.31109C9.27284 3.99625 6.72536 3.99633 4.20739 4.31118L4.20731 4.31109C3.54853 4.39367 3.02294 4.89869 2.91353 5.55328C2.64348 7.17288 2.64348 8.82716 2.91353 10.4468L2.9189 10.4774C3.03935 11.1169 3.55961 11.6076 4.20756 11.6889C6.72547 12.0037 9.27281 12.0037 11.7907 11.6889L11.8215 11.6847C12.4659 11.5906 12.977 11.0912 13.0847 10.4468C13.3547 8.82716 13.3547 7.17288 13.0847 5.55328L13.0792 5.52268C12.9588 4.88316 12.4387 4.39237 11.7908 4.31109Z" fill="#0F61FF"/>
<path d="M10.832 8.00001C10.832 6.98749 10.0112 6.16668 8.99868 6.16668C7.98616 6.16668 7.16535 6.98749 7.16535 8.00001C7.16535 9.01253 7.98616 9.83334 8.99868 9.83334C10.0112 9.83334 10.832 9.01253 10.832 8.00001ZM11.832 8.00001C11.832 9.56482 10.5635 10.8333 8.99868 10.8333C7.43388 10.8333 6.16535 9.56482 6.16535 8.00001C6.16535 6.4352 7.43388 5.16668 8.99868 5.16668C10.5635 5.16668 11.832 6.4352 11.832 8.00001Z" fill="#0F61FF"/>
<path d="M4.83202 7.16668C5.3843 7.16668 5.83202 6.71896 5.83202 6.16668C5.83202 5.61439 5.3843 5.16668 4.83202 5.16668C4.27973 5.16668 3.83202 5.61439 3.83202 6.16668C3.83202 6.71896 4.27973 7.16668 4.83202 7.16668Z" fill="#0F61FF"/>
</svg>
