<svg width="16" height="16" viewBox="0 0 16 16" fill="none" xmlns="http://www.w3.org/2000/svg">
<path fill-rule="evenodd" clip-rule="evenodd" d="M12.6423 3.3564C11.9207 2.63477 10.7642 2.57741 9.97822 3.23368L9.9771 3.23463C9.81981 3.36669 9.6631 3.49942 9.50719 3.63309C7.40392 5.43626 5.45651 7.41439 3.68696 9.54744C3.5729 9.68493 3.45958 9.82306 3.347 9.96183C3.21008 10.1306 3.07425 10.3004 2.93953 10.471C2.86991 10.5593 2.83204 10.6684 2.83203 10.7808V12.6666C2.83203 12.9427 3.05589 13.1666 3.33203 13.1666H5.21785C5.33027 13.1666 5.43943 13.1287 5.52767 13.0591C8.01131 11.0987 10.2968 8.90294 12.3548 6.504C12.3583 6.49994 12.3619 6.49586 12.3654 6.49173C12.4997 6.3355 12.6329 6.17784 12.7642 6.02046C13.4141 5.24216 13.364 4.10063 12.6622 3.37772C12.6558 3.37048 12.6492 3.36331 12.6423 3.3564ZM9.28934 5.15475C9.33286 5.22151 9.38395 5.28484 9.44265 5.34354L10.6551 6.55602C10.7138 6.61465 10.777 6.66571 10.8438 6.70923C9.06591 8.68463 7.12618 10.5104 5.04338 12.1666H3.83203V10.9552C5.48828 8.87243 7.31393 6.93259 9.28934 5.15475ZM11.9244 4.05326C11.5658 3.70515 11.0021 3.68234 10.6201 4.00036C10.4638 4.13158 10.3109 4.26012 10.1599 4.39066L10.1592 4.3913L10.1586 4.39188C10.0858 4.45431 10.081 4.56762 10.1498 4.63643L11.3622 5.84891C11.4317 5.91841 11.5446 5.91281 11.6063 5.84069L11.607 5.83988C11.7377 5.68784 11.8678 5.5339 11.9964 5.37967C12.3185 4.99396 12.2927 4.42188 11.9344 4.06351C11.931 4.06014 11.9277 4.05671 11.9244 4.05326Z" fill="#0F61FF"/>
<path d="M13.332 12.1666C13.6082 12.1666 13.832 12.3905 13.832 12.6666C13.832 12.9428 13.6082 13.1666 13.332 13.1666H7.9987C7.72256 13.1666 7.4987 12.9428 7.4987 12.6666C7.4987 12.3905 7.72256 12.1666 7.9987 12.1666H13.332Z" fill="#0F61FF"/>
</svg>
