<svg width="14" height="14" viewBox="0 0 14 14" fill="none" xmlns="http://www.w3.org/2000/svg">
<path d="M6.5625 9.33333V6.41667C6.5625 6.17504 6.75838 5.97917 7 5.97917C7.24162 5.97917 7.4375 6.17504 7.4375 6.41667V9.33333C7.4375 9.57496 7.24162 9.77083 7 9.77083C6.75838 9.77083 6.5625 9.57496 6.5625 9.33333Z" fill="#1D2539"/>
<path d="M7 5.32292C7.36244 5.32292 7.65625 5.0291 7.65625 4.66667C7.65625 4.30423 7.36244 4.01042 7 4.01042C6.63756 4.01042 6.34375 4.30423 6.34375 4.66667C6.34375 5.0291 6.63756 5.32292 7 5.32292Z" fill="#1D2539"/>
<path d="M11.8125 7C11.8125 4.34213 9.65787 2.1875 7 2.1875C4.34213 2.1875 2.1875 4.34213 2.1875 7C2.1875 9.65787 4.34213 11.8125 7 11.8125C9.65787 11.8125 11.8125 9.65787 11.8125 7ZM12.6875 7C12.6875 10.1411 10.1411 12.6875 7 12.6875C3.85888 12.6875 1.3125 10.1411 1.3125 7C1.3125 3.85888 3.85888 1.3125 7 1.3125C10.1411 1.3125 12.6875 3.85888 12.6875 7Z" fill="#1D2539"/>
</svg>
